<?xml version="1.0" encoding="UTF-8" standalone="no"?>
<!-- Created with Inkscape (http://www.inkscape.org/) -->

<svg
   version="1.1"
   id="svg2"
   xml:space="preserve"
   width="943.74664"
   height="651.58667"
   viewBox="0 0 943.74664 651.58667"
   sodipodi:docname="gcba.svg"
   inkscape:version="1.1.2 (0a00cf5339, 2022-02-04)"
   xmlns:inkscape="http://www.inkscape.org/namespaces/inkscape"
   xmlns:sodipodi="http://sodipodi.sourceforge.net/DTD/sodipodi-0.dtd"
   xmlns="http://www.w3.org/2000/svg"
   xmlns:svg="http://www.w3.org/2000/svg"><defs
     id="defs6"><clipPath
       clipPathUnits="userSpaceOnUse"
       id="clipPath16"><path
         d="M 0,488.69 H 707.81 V 0 H 0 Z"
         id="path14" /></clipPath></defs><sodipodi:namedview
     id="namedview4"
     pagecolor="#ffffff"
     bordercolor="#666666"
     borderopacity="1.0"
     inkscape:pageshadow="2"
     inkscape:pageopacity="0.0"
     inkscape:pagecheckerboard="0"
     showgrid="false"
     inkscape:zoom="1.2738137"
     inkscape:cx="295.17661"
     inkscape:cy="325.79333"
     inkscape:window-width="1920"
     inkscape:window-height="1008"
     inkscape:window-x="0"
     inkscape:window-y="0"
     inkscape:window-maximized="1"
     inkscape:current-layer="g8" /><g
     id="g8"
     inkscape:groupmode="layer"
     inkscape:label="Escudo"
     transform="matrix(1.3333333,0,0,-1.3333333,0,651.58667)"><g
       id="g10"><g
         id="g12"
         clip-path="url(#clipPath16)"><g
           id="g18"
           transform="translate(339.188,354.9639)"><path
             d="m 0,0 c -0.806,0 -1.497,-0.654 -1.497,-1.43 0,-0.836 0.691,-1.515 1.497,-1.515 0.812,0 1.406,0.679 1.406,1.515 C 1.406,-0.654 0.812,0 0,0"
             style="fill:#231f20;fill-opacity:1;fill-rule:nonzero;stroke:none"
             id="path20" /></g><g
           id="g22"
           transform="translate(401.7471,324.7749)"><path
             d="m 0,0 c -3.927,-2.266 -7.429,-3.309 -10.768,-3.309 h -0.309 c -2.139,0.025 -4.338,0.364 -6.465,0.643 -1.801,0.23 -3.69,0.473 -5.539,0.545 -4.587,0.194 -8.15,-0.521 -10.98,-2.217 -1.969,-1.188 -3.376,-2.836 -4.739,-4.497 -0.932,-1.212 -1.969,-2.375 -3.156,-3.454 -0.352,-0.315 -0.83,-0.594 -1.261,-0.594 h -0.06 c -0.546,0 -0.546,0.279 -0.546,1.091 0,0.17 0.043,0.339 0,0.485 -0.084,1.745 -0.303,3.454 -0.557,5.078 l -0.115,0.957 c -0.389,2.909 -0.837,5.975 -1.558,8.968 -0.109,0.546 -0.309,1.176 -0.533,1.83 -0.83,2.618 -1.854,5.951 0.194,7.636 1.254,1.005 3.363,1.224 4.756,1.345 0,0 1.613,0.133 3.407,0.157 h 0.635 c 1.927,0 3.945,-0.109 5.903,-0.4 3.647,-0.472 7.447,-1.43 12.058,-2.969 2.503,-0.812 5.005,-1.733 7.404,-2.654 C -6.629,6.544 -0.824,4.399 5.175,3.333 3.284,1.963 1.594,0.885 0,0 m -49.059,-15.209 c -0.478,-3.382 -1.805,-6.206 -3.853,-8.108 -1.824,-1.661 -3.806,-1.988 -6.472,-1.988 h -1.4 c -0.43,0 -0.903,0.073 -1.424,0.073 -1.685,0 -3.133,-0.594 -4.217,-1.733 -3.2,-3.2 -3.139,-10.313 -3.066,-15.04 v -1.527 l -0.327,0.303 c -4.054,3.757 -7.829,7.344 -13.532,8.229 -0.879,0.121 -1.805,0.158 -2.751,0.158 -1.69,0 -3.569,-0.219 -5.38,-0.703 -1.667,-0.34 -3.018,-0.994 -4.497,-1.661 -0.533,-0.206 -1.085,-0.448 -1.678,-0.739 -0.721,-0.303 -1.6,-0.557 -2.169,-0.557 -0.128,0 -0.267,0.036 -0.298,0.085 -0.084,0.023 -0.084,0.157 0,0.327 0.521,1.89 2.576,3.296 4.303,4.35 l 0.43,0.303 c 4.211,2.897 8.157,5.745 12.125,8.763 7.157,5.611 15.064,12.567 18.967,22.032 2.23,5.309 3.145,11.38 2.751,17.706 v 0.279 c -0.182,2.594 -0.34,5.247 -1.351,7.623 -0.861,1.927 -2.375,2.836 -3.999,3.818 -0.297,0.121 -0.595,0.363 -0.898,0.46 0.758,1.381 2.909,5.151 5.284,5.151 0.909,0 1.849,-0.521 2.715,-1.685 2.8,-3.926 4.084,-8.641 5.26,-12.773 0.212,-0.679 0.448,-1.455 0.673,-2.255 2.272,-8.011 6.09,-21.414 4.804,-30.891 m -38.938,5.72 c -1.146,1.842 -2.333,3.769 -3.751,5.538 -3.369,4.06 -7.823,5.866 -14.482,5.866 -2.746,0 -5.708,-0.267 -8.569,-0.558 -2.751,-0.351 -5.665,-0.654 -8.374,-0.654 -1.454,0 -2.757,0.097 -3.939,0.255 4.763,1.599 9.386,3.841 13.858,5.938 4.739,2.327 9.695,4.702 14.847,6.302 3.241,0.969 6.55,1.478 9.968,1.478 6.15,0 11.9,-1.612 16.536,-4.69 3.896,-2.557 5.006,-5.308 3.727,-9.077 -1.388,-4.048 -3.848,-8.023 -7.211,-11.816 -0.206,-0.255 -0.485,-0.546 -0.721,-0.885 -1.497,-1.733 -3.848,-4.666 -5.963,-4.666 -0.673,0 -1.194,0.279 -1.715,0.836 -1.666,1.782 -3.005,4 -4.211,6.133 m 99.28,17.1 -0.261,0.024 c -7.604,0.291 -14.839,3.042 -21.899,5.684 -2.842,1.067 -5.787,2.157 -8.737,3.115 -5.727,1.805 -10.86,2.836 -15.707,3.054 -1.231,0.06 -2.442,0.121 -3.649,0.121 -3.265,0 -7.804,-0.339 -10.622,-3.042 -0.836,3.551 -1.781,7.55 -3.302,11.356 -1.43,3.672 -3.569,7.95 -7.447,9.101 -0.612,0.23 -1.261,0.303 -1.915,0.303 -3.793,0 -6.69,-3.442 -8.144,-5.453 l -0.612,-0.934 c -1.667,-2.423 -2.533,-3.66 -2.297,-4.751 0.279,-1.163 1.666,-2.023 4.83,-3.805 1.302,-0.751 1.582,-2.763 1.684,-4.169 l 0.043,-0.194 c 0.314,-2.133 0.412,-4.278 0.412,-6.241 -4.412,4.508 -11.186,6.326 -17.349,7.429 -1.569,0.315 -3.278,0.436 -5.017,0.436 -7.06,0 -13.955,-2.581 -18.488,-4.532 -2.581,-1.152 -5.181,-2.376 -7.647,-3.6 -4.787,-2.29 -9.786,-4.665 -14.949,-6.241 -1.594,-0.473 -3.236,-0.873 -5.284,-1.236 h -0.091 -0.146 l -0.145,-0.061 c -0.757,-0.109 -2.06,-0.485 -2.339,-1.708 -0.261,-1.261 -0.115,-2.085 1.551,-3.321 3.739,-2.121 8.32,-3.127 13.931,-3.127 1.207,0 2.406,0 3.661,0.073 1.69,0.072 3.447,0.278 5.259,0.533 2.576,0.339 5.211,0.691 7.768,0.691 1.782,0 3.278,-0.182 4.69,-0.509 4.2,-0.945 6.684,-5.103 8.884,-8.787 0.57,-0.86 1.03,-1.757 1.581,-2.605 l 0.037,-0.012 c 1.03,-1.588 2.714,-4.084 2.642,-6.048 -0.134,-1.83 -2.739,-3.429 -4.563,-4.496 -0.46,-0.291 -1,-0.642 -1.357,-0.836 -0.594,-0.437 -1.285,-0.885 -2.012,-1.37 -4.145,-2.642 -9.902,-6.314 -9.277,-11.222 0.314,-2.412 2.339,-4.412 4.763,-4.714 0.284,-0.049 0.472,-0.049 0.69,-0.049 1.734,0 3.375,0.824 4.878,1.612 0.643,0.376 1.285,0.691 1.903,0.921 1.988,0.812 4.06,1.26 6.005,1.26 3.411,0 6.69,-1.151 9.701,-3.442 0.982,-0.702 1.867,-1.635 2.739,-2.545 0.939,-0.884 1.903,-1.854 2.982,-2.653 0.89,-0.619 2.532,-1.261 3.914,-1.261 1.376,0 2.297,0.642 2.575,1.903 0.491,2.387 0.449,5.005 0.449,7.417 -0.055,2.024 -0.055,4.011 0.2,6.011 0.145,1.175 0.472,3.647 1.993,4.363 0.552,0.218 1.097,0.351 1.86,0.351 0.752,0 1.607,-0.133 2.412,-0.255 1.067,-0.181 2.224,-0.339 3.2,-0.254 4.429,0.654 8.15,4.302 9.925,9.78 0.776,1.818 1.763,2.63 3.648,3.115 2.225,0.521 3.642,2.363 4.993,4.169 0.346,0.388 0.655,0.812 1,1.248 2.8,3.296 6.211,4.787 10.986,4.787 0.885,0 1.836,-0.048 2.861,-0.157 0.993,-0.122 1.98,-0.206 2.957,-0.352 2.587,-0.303 5.035,-0.582 7.538,-0.582 2.678,0 5.041,0.388 7.253,1.091 5.799,1.963 10.865,5.66 15.543,9.393 l 0.624,0.593 c 1.321,1.079 1.648,1.818 1.278,3.018 -0.339,1.285 -1.951,1.515 -2.587,1.612"
             style="fill:#231f20;fill-opacity:1;fill-rule:nonzero;stroke:none"
             id="path24" /></g><g
           id="g26"
           transform="translate(451.8535,216.9014)"><path
             d="m 0,0 c -1.327,-6.895 -3.156,-13.572 -5.32,-20.201 l -22.366,52.996 9.823,4.363 c 1.036,0.522 1.036,1.939 0.036,2.497 0,0 -9.611,6.823 -10.168,7.211 l -0.224,16.252 c 1.23,0.169 2.351,0.678 3.502,0.872 1.303,0.194 2.503,0 3.83,-0.279 1.163,-0.169 2.315,-0.291 3.448,0.013 1.121,0.315 2.054,0.921 2.884,1.611 -2.527,0.085 -4.581,1.709 -6.841,2.727 -1.133,0.521 -2.375,0.836 -3.6,0.994 -1.193,0.073 -2.69,0.133 -3.823,-0.158 -0.146,0.897 -0.255,1.891 -0.43,2.957 h -0.509 c -0.716,-4.435 -0.697,-9.331 -0.795,-13.803 -0.023,-3.127 -0.053,-6.339 -0.084,-9.514 0,-0.545 0,-1.091 -0.049,-1.672 l -10.077,-7.211 c -0.975,-0.485 -1.006,-1.964 0,-2.497 l 9.55,-4.363 -19.232,-46.731 -9.92,30.08 10.968,5.138 c 1.121,0.57 1.175,2.267 0.03,2.861 0,0 -10.289,7.247 -11.696,8.228 0,3.781 -0.121,7.866 -0.121,11.489 l 9.998,4.678 v 0.037 c 1.043,0.485 1.08,1.926 0.08,2.472 0,0 -8.993,6.411 -10.295,7.344 -0.11,7.357 -0.17,14.774 -0.297,22.057 0.533,0 1.169,0.23 1.702,0.364 0.618,0.193 1.291,0.363 1.891,0.521 1.309,0.23 2.563,0.012 3.818,-0.243 1.211,-0.181 2.49,-0.303 3.641,0 1.042,0.327 2.005,0.958 2.89,1.637 -2.526,0.048 -4.587,1.684 -6.81,2.702 -1.103,0.497 -2.375,0.788 -3.594,0.969 -1.236,0.146 -2.66,0.194 -3.848,-0.181 -0.096,0.957 -0.242,1.939 -0.435,3.03 h -0.467 c -0.703,-4.085 -0.752,-8.205 -0.83,-12.313 0,-3.721 -0.025,-7.515 -0.061,-11.32 -0.024,-2.411 -0.073,-4.823 -0.103,-7.223 l -10.229,-7.32 c -0.963,-0.545 -0.963,-1.988 0,-2.496 l 10.017,-4.715 h 0.018 c -0.018,-3.563 -0.103,-7.768 -0.145,-11.489 l -11.641,-8.217 c -1.218,-0.533 -1.218,-2.302 0,-2.872 l 10.726,-5.138 -33.571,-37.218 c -0.666,0 -4.859,-0.072 -5.453,-0.848 -0.837,-0.68 -0.897,-1.758 -0.503,-2.642 0.503,-1.249 1.515,-2.061 2.654,-2.678 0.552,-0.389 1.157,-0.668 1.769,-0.899 0.067,-0.035 0.146,-0.132 0.206,-0.205 0,0 3,-10.035 15.98,-14.713 h -0.03 c 0,0 0.35,-0.072 0.248,-0.375 0,-0.086 -0.025,-0.086 -0.146,-0.146 -0.042,-0.061 -0.163,-0.084 -0.309,-0.096 -12.313,0.822 -24.474,2.811 -36.703,4.725 -4.684,0.777 -9.313,1.492 -13.997,2.086 -3.109,0.412 -6.314,0.75 -9.447,1.332 -0.315,0.121 -0.461,0.23 -0.527,0.388 v 0.012 0.11 c 0.011,0.097 0.121,0.181 0.187,0.218 0.025,0.035 0.079,0.108 0.079,0.108 17.149,5.054 20.809,17.597 20.809,17.597 0.176,0.086 0.424,0.243 0.624,0.352 0.467,0.207 0.964,0.412 1.351,0.703 1.091,0.643 2.133,1.479 2.624,2.643 0.4,0.968 0.334,1.986 -0.54,2.726 -0.654,0.811 -5.447,0.811 -5.447,0.811 l -0.048,-0.073 h -0.867 c 0,2.68 -0.036,9.612 -0.236,14.132 0.472,-0.217 1.151,-0.012 1.618,0.061 0.636,0.206 1.284,0.448 1.896,0.546 1.352,0.387 2.624,0.229 3.958,0 1.266,-0.243 2.556,-0.438 3.877,-0.098 1.127,0.327 2.158,0.909 3.055,1.649 -2.582,0.109 -4.751,1.769 -7.005,2.763 -1.206,0.533 -2.461,0.86 -3.769,0.92 -1.255,0.086 -2.77,0.231 -3.897,-0.314 -0.085,1.09 -0.224,1.974 -0.297,2.677 h -0.466 c -0.661,-3.829 -0.661,-17.171 -0.746,-22.336 l -8.64,-0.011 c -0.206,9.369 -0.643,21.972 -0.873,29.995 l 7.52,15.997 c 0.975,-0.448 2.169,-0.557 3.205,-0.921 1.194,-0.388 2.14,-1.066 3.103,-1.878 0.866,-0.74 1.781,-1.491 2.896,-1.83 1.212,-0.424 2.509,-0.364 3.733,-0.133 -2.091,1.272 -3.109,3.647 -4.502,5.502 -0.721,1.091 -1.63,1.939 -2.594,2.654 -1.03,0.763 -2.266,1.587 -3.508,1.89 0.284,0.849 0.691,2.048 0.721,2.618 -0.03,0.085 0,0.206 -0.225,0.376 -0.03,0 -0.09,0.024 -0.09,0.024 -0.406,-0.061 -0.485,-0.291 -0.661,-0.533 -0.714,-0.849 -1.575,-2.424 -1.757,-2.703 l -7.926,-17.051 c -0.072,2.653 -0.157,5.368 -0.206,8.083 0,3.345 -0.176,6.738 -0.745,10.083 h -0.473 c -0.685,-4.06 -0.685,-8.156 -0.775,-12.301 0,-3.672 -0.176,-7.404 -0.243,-11.101 l -13.743,-28.431 -12.271,30.14 c -0.073,3.733 -0.188,7.441 -0.248,11.222 -0.031,4.205 -0.031,8.447 -0.751,12.653 h -0.449 c -0.746,-4.169 -0.746,-8.314 -0.848,-12.483 0,-3.781 -0.152,-7.563 -0.212,-11.392 l -3.921,-9.308 -9.562,22.433 c -0.109,3.696 -0.158,7.368 -0.23,10.968 l 8.768,4.12 c 0.867,0.4 0.939,1.685 0,2.218 0,0 -7.411,5.26 -8.944,6.363 -0.139,7.719 -0.2,15.464 -0.315,23.123 0.563,0 1.127,0.23 1.69,0.364 0.6,0.193 1.237,0.363 1.885,0.521 1.333,0.23 2.545,0.012 3.817,-0.243 1.225,-0.181 2.424,-0.303 3.661,0 1.066,0.327 2.047,0.958 2.872,1.637 -2.454,0.048 -4.545,1.611 -6.635,2.605 -1.17,0.558 -2.382,0.885 -3.6,1.066 -1.278,0.146 -2.733,0.219 -4.005,-0.181 -0.085,1.054 -0.224,2.06 -0.394,3.066 h -0.503 c -0.848,-4.945 -0.757,-9.889 -0.818,-14.883 -0.03,-4.811 -0.091,-9.586 -0.158,-14.373 -0.03,-0.969 -0.03,-1.794 -0.03,-2.702 l -8.937,-6.363 c -0.898,-0.461 -0.898,-1.769 0,-2.218 l 8.731,-4.12 c -0.066,-4.109 -0.146,-10.52 -0.146,-10.968 l -17.814,-41.847 -2.588,9.586 h 2.278 1.146 c 0.527,0 1.006,0.181 1.502,0.4 0.352,0.036 1.098,0.314 1.098,0.872 0,0.399 -0.709,0.63 -0.989,0.764 -0.472,0.217 -1.06,0.376 -1.611,0.376 h -4.091 l -1.721,6.604 c -0.06,2.715 -0.096,5.503 -0.181,8.169 l 9.865,4.568 c 1.006,0.545 1.006,2 0.024,2.509 0,0 -9.404,6.714 -10.077,7.138 -0.049,1.964 -0.103,4.679 -0.103,6.424 l 8.835,4.229 c 0.89,0.448 0.939,1.733 0.006,2.242 0,0 -7.817,5.636 -9.078,6.508 -0.078,6.411 -0.126,10.726 -0.169,11.162 1.006,-0.073 2.157,0.533 3.108,0.776 1.14,0.157 2.194,0.084 3.315,-0.122 1.103,-0.218 2.158,-0.363 3.23,-0.121 1.036,0.291 1.987,0.8 2.751,1.442 -2.224,0.085 -4.103,1.54 -6.054,2.4 -1.048,0.449 -2.139,0.739 -3.242,0.848 -1.042,0.158 -2.411,0.218 -3.423,-0.182 -0.127,0.897 -0.249,1.709 -0.4,2.679 h -0.473 c -0.696,-3.539 -0.745,-7.09 -0.769,-10.641 -0.031,-3.114 -0.073,-5.235 -0.182,-8.241 l -9.011,-6.508 c -0.951,-0.461 -0.951,-1.794 0,-2.242 l 8.817,-4.229 c 0,-1.745 -0.048,-4.485 -0.079,-6.424 l -9.95,-7.102 c -1.048,-0.533 -1.048,-1.987 -0.011,-2.472 l 9.75,-4.641 c -0.055,-2.666 -0.116,-5.369 -0.183,-8.096 l -1.727,-6.677 h -4.09 c -0.491,0 -1.06,-0.159 -1.533,-0.34 -0.309,-0.11 -1.103,-0.327 -1.103,-0.8 0,-0.521 0.697,-0.775 1.036,-0.849 0.479,-0.242 1.055,-0.423 1.6,-0.423 h 1.127 0.006 2.291 l -3.066,-11.586 h -4.897 c -2.987,11.222 -4.811,22.699 -5.447,34.309 -0.637,11.562 -0.134,23.245 1.503,34.758 1.496,10.604 3.981,21.148 7.58,31.328 3.358,9.683 7.642,19.027 12.907,27.862 2.733,4.666 5.72,9.125 9.023,13.428 13.355,-4.484 30.595,-0.388 30.595,-0.388 15.543,2.8 25.238,2.327 30.867,1.551 l 2.969,-0.581 c 0.346,1.951 0.54,3.259 1.146,5.066 -16.294,5.187 -34.546,2.678 -34.546,2.678 -11.077,-1.006 -17.839,1.224 -21.372,3.102 0,0 7.071,7.526 12.725,11.574 5.017,-3.6 11.368,-5.381 17.294,-6.411 3.89,-0.715 7.872,-1.054 11.75,-1.915 3.914,-0.873 7.889,-2.085 11.676,-3.405 1.37,-0.436 3.163,-1.321 3.952,-1.721 0.745,1.575 1.72,3.041 2.756,4.484 l -2.557,1.612 c -4.987,2.86 -9.774,4.326 -15.033,5.926 -3.551,1.079 -6.933,2.327 -10.248,4.072 -4.501,2.291 -7.295,5.308 -7.574,5.478 0,0 7.696,4.726 15.016,7.477 3.339,-4.799 9.586,-7.477 13.882,-11.113 6.048,-5.126 9.241,-9.986 9.55,-10.471 1.394,1.042 2.708,1.83 4.545,2.497 -2.406,5.284 -5.854,11.368 -9.986,15.173 -1.849,1.733 -4.696,4.847 -5.502,7.805 0,0 9.701,2.387 17.149,2.593 l 2.817,-24.505 c 1.03,0.194 2.575,0.182 2.575,0.182 0,0 0.982,0.012 2.588,-0.182 l 2.763,24.457 c 0,0 6.617,-0.279 11.979,-1.358 2.94,-0.581 5.212,-1.187 5.212,-1.187 -0.854,-2.958 -3.575,-6.084 -5.405,-7.805 -4.212,-3.866 -7.496,-9.829 -9.877,-15.173 1.388,-0.643 2.969,-1.285 4.484,-2.509 2.811,4.157 6.289,7.72 9.471,10.483 4.175,3.624 10.44,6.459 13.773,11.113 0.879,-0.363 4.69,-1.805 10.665,-4.835 l 4.478,-2.557 c -0.121,-0.109 -5.065,-4.194 -7.574,-5.563 -3.224,-1.939 -6.69,-2.993 -10.223,-4.072 -5.314,-1.6 -10.083,-3.066 -15.119,-5.926 l -2.538,-1.564 c 1.012,-1.26 1.987,-2.775 2.823,-4.459 0.867,0.411 2.6,1.212 3.885,1.648 3.859,1.32 7.744,2.532 11.719,3.405 3.83,0.861 7.798,1.2 11.78,1.915 5.841,0.97 12.227,2.921 17.154,6.411 6.363,-4.86 12.726,-11.586 12.726,-11.586 -3.509,-1.878 -10.266,-4.096 -21.306,-3.09 0,0 -18.264,2.509 -34.491,-2.606 0.521,-1.539 0.703,-2.606 1.055,-4.957 l 3.211,0.51 c 5.781,0.775 15.215,1.139 30.728,-1.661 0,0 17.124,-4.036 30.504,0.388 1.352,-1.709 2.569,-3.503 3.829,-5.296 5.745,-8.265 10.544,-17.221 14.458,-26.505 C -5.52,89.961 -2.418,79.77 -0.267,69.371 2.03,58.476 3.23,47.253 3.346,36.092 3.49,24.021 2.363,11.854 0,0 m -16.604,-20.893 -10.191,42.745 c -0.309,2.593 0.363,1.636 0.854,0.667 L -7.253,-20.893 Z M -27.51,15.053 c -0.037,0.521 0.237,0.376 0.424,-0.11 l 8.35,-36.017 c -1.793,-4.231 -5.496,-7.393 -8.193,-9.199 -0.06,6.544 -0.581,45.144 -0.581,45.326 M -64.595,11.635 C -64.686,4 -64.952,-20.201 -64.952,-21.074 h -8.95 z M -75.98,-21.074 h -19.985 l 29.74,33.533 z m 19.911,-6.594 c -2.309,2.461 -3.697,4.957 -4.205,6.012 -0.091,8.119 -0.255,20.191 -0.46,33.291 l 9.168,-28.406 z m 10.634,-6.156 c -3.811,0.789 -6.829,2.703 -9.101,4.666 l 3.938,9.404 z m 13.35,56.088 -12.059,-53.653 -5.284,14.375 0.061,0.108 16.543,39.679 c 0.442,0.86 0.945,1.37 0.739,-0.509 m 0.945,-7.272 c -0.255,-16.857 -0.466,-35 -0.684,-47.785 -4.103,-1.371 -7.655,-1.734 -10.78,-1.455 l 6.919,30.939 4.079,18.252 c 0.2,0.412 0.393,0.667 0.466,0.049 m 3.224,29.995 7.417,-5.211 h -7.362 c 0,1.769 0,3.539 -0.055,5.211 m -10.162,-5.211 7.277,5.211 c -0.03,-1.672 -0.054,-3.429 -0.054,-5.211 z m 1.721,-2.787 h 13.937 c 0.406,0 0.473,-0.146 0.061,-0.34 l -6.266,-2.969 c -0.376,-0.17 -0.903,-0.17 -1.297,0 l -6.466,2.969 c -0.382,0.194 -0.382,0.34 0.031,0.34 m -24.706,-6.617 8.491,-6.012 h -8.363 c 0,1.939 -0.054,4.06 -0.128,6.012 m -0.338,26.02 7.368,-5.163 h -7.26 c -0.029,1.83 -0.084,3.514 -0.108,5.163 m -9.781,-5.163 7.211,5.247 c 0,-1.672 0,-3.417 -0.024,-5.247 z m 1.418,-2.897 c 0,0 0.225,0.097 0.285,0.097 h 13.64 c 0.17,0 0.231,-0.048 0.231,-0.048 h 0.066 l -0.036,-0.049 c 0.06,-0.073 0.036,-0.109 -0.212,-0.218 l -6.157,-2.885 c -0.303,-0.133 -0.842,-0.133 -1.224,0 l -6.339,2.885 c -0.229,0.109 -0.29,0.145 -0.254,0.218 m -3.066,-23.972 8.496,6.012 c 0,-1.746 -0.031,-5.817 -0.031,-6.012 z m 1.885,-3.272 h 16.276 c 0.46,0 0.479,-0.109 0.218,-0.326 -0.055,-0.049 -7.436,-3.552 -7.436,-3.552 -0.484,-0.218 -1.169,-0.134 -1.551,0 l -7.623,3.491 c -0.418,0.23 -0.369,0.387 0.116,0.387 m -80.756,-31.037 11.264,24.215 c -0.218,-6.92 -0.448,-16.955 -0.66,-24.215 h -4.599 c -1.679,0 -4.339,-0.133 -6.005,0 m -10.077,-9.428 c -0.94,-1.176 -2.261,-2.195 -3.394,-3.141 -0.06,3.37 -0.242,7.709 -0.303,11.647 z m -3.842,14.094 v 3.588 c -0.134,6.398 -0.339,9.367 -0.473,15.269 0.049,0.401 0.164,0.692 0.503,0.195 l 9.859,-24.64 c -1.654,-3.186 -1.897,-4.289 -4.417,-6.955 z m -10.829,7.635 -5.671,24.565 c -0.049,0.485 0.03,0.716 0.381,0.013 l 7.896,-18.336 z m -5.223,-12.35 c -0.103,7.283 -0.224,15.719 -0.364,24.529 0.067,0.656 0.206,1.164 0.546,0.121 l 3.66,-15.56 z m 4.593,5.623 5.339,-21.898 c -1.873,-0.801 -4.169,-1.2 -6.224,-1.516 -0.726,-0.072 -1.454,-0.121 -2.175,-0.17 -0.442,-0.023 -0.909,-0.096 -1.351,-0.023 -0.012,2.873 -0.085,7.38 -0.127,12.822 z m 5.515,12.969 2.187,5.247 c 0.242,0.304 0.369,0.194 0.424,-0.072 -0.055,-3.358 -0.182,-6.945 -0.285,-10.617 z m 2.187,-10.459 c -0.182,-8.41 -0.4,-16.664 -0.516,-23.184 -0.06,-0.06 -0.169,-0.086 -0.23,-0.158 l -5.508,24.105 2.951,7.041 z m -13.265,57.178 6.478,-4.266 h -6.429 c -0.018,1.466 -0.018,2.909 -0.049,4.266 m -9.126,-4.266 6.497,4.327 c 0,-1.358 0,-2.836 -0.019,-4.327 z m 1.546,-2.545 h 12.392 c 0.363,0 0.363,-0.073 0.055,-0.267 l -5.57,-2.593 c -0.357,-0.182 -0.86,-0.182 -1.163,-0.037 l -5.799,2.63 c -0.333,0.194 -0.285,0.267 0.085,0.267 m 4.357,-34.14 c -0.267,-17.489 -0.455,-33.739 -0.558,-41.483 -3.042,0.908 -5.98,1.853 -8.574,3.611 l 8.738,38.66 c 0.242,0.4 0.382,-0.181 0.394,-0.788 m -10.95,-36.71 c -5.369,3.504 -6.066,9.237 -5.763,10.399 l 16.561,38.879 c 0.303,0.703 0.485,0.533 0.394,0 z m 170.251,-39.24 c -12.284,-3.019 -24.858,-4.533 -37.431,-5.199 -6.29,-0.328 -12.671,-0.547 -18.943,-0.17 -6.337,0.242 -12.682,1.332 -18.99,2.217 -12.695,1.818 -25.389,3.842 -38.145,5.308 -12.695,1.418 -25.492,2.17 -38.321,1.551 -6.896,-0.387 -13.864,-1.162 -20.706,-2.484 -2.302,3.273 -4.544,6.666 -6.623,10.179 11.247,2.34 22.669,3.868 34.159,4.303 11.682,0.377 23.341,-0.435 34.897,-1.951 11.149,-1.406 22.226,-3.502 33.382,-4.992 10.234,-1.395 20.512,-2.291 30.818,-2.291 h 0.037 c 10.69,0 21.372,0.922 31.952,2.666 7.677,1.248 15.392,2.812 22.917,4.787 -2.745,-4.836 -5.762,-9.537 -9.003,-13.924 m -29.105,-28.748 c -12.27,-1.199 -24.644,-0.689 -36.879,0.68 -12.222,1.308 -24.353,3.369 -36.478,5.185 -12.562,1.795 -25.166,3.369 -37.872,3.262 -4.285,-0.086 -8.581,-0.279 -12.829,-0.691 -4.011,3.574 -7.841,7.416 -11.507,11.56 12.725,1.904 25.644,1.867 38.423,1.008 12.877,-1.008 25.615,-2.836 38.346,-4.727 6.423,-0.994 12.791,-1.927 19.178,-2.836 3.176,-0.351 15.87,-1.334 18.961,-1.285 12.798,0 25.596,0.934 38.278,2.992 -5.496,-5.707 -11.38,-10.712 -17.621,-15.148 m -56.712,-18.252 c -19.336,0 -37.594,5.867 -53.663,16.266 12.482,0.072 24.85,-1.576 37.139,-3.395 12.361,-1.842 24.711,-3.926 37.102,-5.15 4.806,-0.522 9.587,-0.86 14.386,-1.029 -11.071,-4.364 -22.778,-6.692 -34.964,-6.692 m -95.644,98.397 c -0.061,3.587 -0.121,7.429 -0.2,11.332 0.06,0.254 0.26,0.435 0.491,-0.303 l 2.939,-11.029 z m -0.666,41.156 7.319,-5.126 h -7.235 c -0.084,1.733 -0.084,3.466 -0.084,5.126 m -0.304,19.185 6.623,-4.326 h -6.599 c 0,1.429 -0.024,2.92 -0.024,4.326 m -9.01,-4.326 6.635,4.375 c -0.012,-1.394 -0.012,-2.836 -0.073,-4.375 z m 1.515,-2.509 h 12.427 c 0.316,0 0.376,-0.17 0.043,-0.352 l -5.526,-2.569 c -0.346,-0.194 -0.873,-0.194 -1.236,-0.048 l -5.757,2.69 c -0.315,0.133 -0.291,0.279 0.049,0.279 m -2.424,-17.476 7.247,5.151 c 0,-1.685 -0.042,-3.394 -0.061,-5.151 z m 8.132,-6.12 -6.484,2.969 c -0.381,0.218 -0.315,0.291 0.061,0.291 h 13.955 c 0.399,0 0.412,-0.073 0.018,-0.291 l -6.217,-2.969 c -0.388,-0.182 -0.97,-0.182 -1.333,0 m -1.57,-29.91 h -3.242 l 2.891,10.943 c 0.285,0.801 0.484,0.764 0.557,0.461 -0.073,-3.975 -0.133,-7.817 -0.206,-11.404 M 12.132,63.203 C 10.478,73.879 7.829,84.338 4.236,94.53 c -3.412,9.684 -7.726,19.124 -12.949,28.08 -3.994,6.896 -8.532,13.537 -13.646,19.719 -6.46,7.962 -13.811,15.149 -21.9,21.414 -7.938,6.12 -16.561,11.247 -25.675,15.222 -9.131,3.914 -18.833,6.593 -28.661,7.889 -10.041,1.334 -20.288,1.164 -30.261,-0.388 -9.793,-1.527 -19.367,-4.484 -28.408,-8.58 -9.053,-4.169 -17.585,-9.562 -25.378,-15.864 -7.95,-6.338 -15.1,-13.67 -21.421,-21.754 -6.229,-7.829 -11.633,-16.385 -16.178,-25.365 -4.763,-9.223 -8.599,-19.015 -11.574,-29.013 -3.054,-10.423 -5.163,-21.197 -6.351,-32.044 -1.181,-11.234 -1.351,-22.626 -0.472,-33.921 0.776,-10.919 2.581,-21.839 5.35,-32.456 2.673,-10.168 6.266,-20.117 10.738,-29.606 4.296,-9.176 9.489,-17.9 15.422,-25.984 6.75,-9.174 23.783,-25.365 23.838,-25.365 20.154,-16.446 44.556,-26.202 70.909,-26.202 h 0.019 c 10.058,0 20.02,1.454 29.667,4.254 9.574,2.762 18.7,6.846 27.153,12.034 8.659,5.224 16.579,11.55 23.718,18.724 7.125,7.139 13.518,15.076 19.009,23.535 5.617,8.496 10.336,17.621 14.118,27.075 4.096,9.853 7.12,20.13 9.26,30.625 2.308,10.798 3.556,21.923 3.792,32.988 0.286,11.307 -0.412,22.578 -2.223,33.656"
             style="fill:#231f20;fill-opacity:1;fill-rule:nonzero;stroke:none"
             id="path28" /></g></g></g></g></svg>
