<?xml version="1.0" encoding="UTF-8" standalone="no"?>
<svg
   viewBox="0 0 521.669 83.174"
   overflow="visible"
   version="1.1"
   id="svg38"
   sodipodi:docname="gestion-compartida.svg"
   inkscape:version="1.1.2 (0a00cf5339, 2022-02-04)"
   xmlns:inkscape="http://www.inkscape.org/namespaces/inkscape"
   xmlns:sodipodi="http://sodipodi.sourceforge.net/DTD/sodipodi-0.dtd"
   xmlns="http://www.w3.org/2000/svg"
   xmlns:svg="http://www.w3.org/2000/svg">
  <defs
     id="defs42" />
  <sodipodi:namedview
     id="namedview40"
     pagecolor="#ffffff"
     bordercolor="#666666"
     borderopacity="1.0"
     inkscape:pageshadow="2"
     inkscape:pageopacity="0.0"
     inkscape:pagecheckerboard="0"
     showgrid="false"
     inkscape:zoom="1.2737962"
     inkscape:cx="346.20923"
     inkscape:cy="5.4953846"
     inkscape:window-width="1920"
     inkscape:window-height="1048"
     inkscape:window-x="1920"
     inkscape:window-y="0"
     inkscape:window-maximized="1"
     inkscape:current-layer="svg38" />
  <path
     d="M 131.617 65.97 C 127.261 65.97 123.538 64.458 120.44 61.418 C 117.343 58.386 115.799 54.547 115.799 49.884 C 115.799 45.221 117.351 41.397 120.44 38.381 C 123.53 35.364 127.34 33.852 131.863 33.852 C 135.142 33.852 138.057 34.628 140.623 36.172 C 143.19 37.716 145.075 39.948 146.287 42.861 L 141.281 42.861 C 139.396 39.315 136.259 37.541 131.855 37.541 C 128.425 37.541 125.597 38.673 123.363 40.93 C 121.138 43.186 120.021 46.186 120.021 49.915 C 120.021 53.644 121.138 56.652 123.363 58.925 C 125.597 61.197 128.377 62.337 131.696 62.337 C 135.015 62.337 137.693 61.395 139.705 59.518 C 141.717 57.642 142.897 55.093 143.23 51.879 L 130.215 51.879 L 130.215 48.601 L 147.602 48.601 L 147.602 51.879 C 147.182 55.94 145.495 59.312 142.556 61.973 C 139.61 64.64 135.966 65.978 131.609 65.978"
     fill="rgb(255,255,255)"
     stroke="rgb(255,255,255)"
     stroke-miterlimit="10"
     stroke-dasharray=""
     id="path2" />
  <path
     d="M 131.617 65.97 C 127.261 65.97 123.538 64.458 120.44 61.418 C 117.343 58.386 115.799 54.547 115.799 49.884 C 115.799 45.221 117.351 41.397 120.44 38.381 C 123.53 35.364 127.34 33.852 131.863 33.852 C 135.142 33.852 138.057 34.628 140.623 36.172 C 143.19 37.716 145.075 39.948 146.287 42.861 L 141.281 42.861 C 139.396 39.315 136.259 37.541 131.855 37.541 C 128.425 37.541 125.597 38.673 123.363 40.93 C 121.138 43.186 120.021 46.186 120.021 49.915 C 120.021 53.644 121.138 56.652 123.363 58.925 C 125.597 61.197 128.377 62.337 131.696 62.337 C 135.015 62.337 137.693 61.395 139.705 59.518 C 141.717 57.642 142.897 55.093 143.23 51.879 L 130.215 51.879 L 130.215 48.601 L 147.602 48.601 L 147.602 51.879 C 147.182 55.94 145.495 59.312 142.556 61.973 C 139.61 64.64 135.966 65.978 131.609 65.978 Z"
     fill="transparent"
     stroke-width="1.14"
     stroke="rgb(255,255,255)"
     stroke-miterlimit="10"
     stroke-dasharray=""
     id="path4"
     style="fill:#000000" />
  <path
     d="M 163.634 66.097 C 160.054 66.097 157.139 64.918 154.897 62.55 C 152.656 60.183 151.531 57.064 151.531 53.185 C 151.531 49.306 152.671 46.186 154.945 43.835 C 157.218 41.484 160.173 40.312 163.801 40.312 C 167.429 40.312 170.343 41.428 172.538 43.653 C 174.74 45.886 175.841 48.728 175.841 52.187 C 175.841 53.066 175.777 53.889 175.659 54.642 L 155.769 54.642 C 155.887 57.127 156.672 59.091 158.113 60.532 C 159.555 61.973 161.393 62.693 163.642 62.693 C 165.337 62.693 166.771 62.313 167.943 61.561 C 169.108 60.801 169.971 59.803 170.518 58.56 L 174.977 58.56 C 174.185 60.745 172.831 62.543 170.906 63.975 C 168.973 65.4 166.557 66.113 163.65 66.113 M 169.227 45.886 C 167.737 44.445 165.892 43.724 163.698 43.724 C 161.504 43.724 159.674 44.429 158.216 45.838 C 156.759 47.247 155.951 49.179 155.8 51.633 L 171.5 51.633 C 171.468 49.242 170.708 47.319 169.227 45.878"
     fill="rgb(255,255,255)"
     stroke="rgb(255,255,255)"
     stroke-miterlimit="10"
     stroke-dasharray=""
     id="path6" />
  <path
     d="M 163.634 66.097 C 160.054 66.097 157.139 64.918 154.897 62.55 C 152.656 60.183 151.531 57.064 151.531 53.185 C 151.531 49.306 152.671 46.186 154.945 43.835 C 157.218 41.484 160.173 40.312 163.801 40.312 C 167.429 40.312 170.343 41.428 172.538 43.653 C 174.74 45.886 175.841 48.728 175.841 52.187 C 175.841 53.066 175.777 53.889 175.659 54.642 L 155.769 54.642 C 155.887 57.127 156.672 59.091 158.113 60.532 C 159.555 61.973 161.393 62.693 163.642 62.693 C 165.337 62.693 166.771 62.313 167.943 61.561 C 169.108 60.801 169.971 59.803 170.518 58.56 L 174.977 58.56 C 174.185 60.745 172.831 62.543 170.906 63.975 C 168.973 65.4 166.557 66.113 163.65 66.113 Z M 169.227 45.886 C 167.737 44.445 165.892 43.724 163.698 43.724 C 161.504 43.724 159.674 44.429 158.216 45.838 C 156.759 47.247 155.951 49.179 155.8 51.633 L 171.5 51.633 C 171.468 49.242 170.708 47.319 169.227 45.878 Z"
     fill="transparent"
     stroke-width="1.14"
     stroke="rgb(255,255,255)"
     stroke-miterlimit="10"
     stroke-dasharray=""
     id="path8"
     style="fill:#000000" />
  <path
     d="M 178.97 47.77 C 178.97 45.672 179.841 43.914 181.584 42.466 C 183.326 41.025 185.584 40.304 188.364 40.304 C 191.144 40.304 193.323 41.009 194.891 42.418 C 196.467 43.827 197.339 45.759 197.489 48.221 L 193.212 48.221 C 193.148 46.828 192.681 45.704 191.802 44.856 C 190.923 44.009 189.703 43.582 188.142 43.582 C 186.582 43.582 185.346 43.954 184.451 44.698 C 183.556 45.442 183.112 46.4 183.112 47.564 C 183.112 48.728 183.619 49.63 184.641 50.272 C 185.655 50.913 186.891 51.372 188.324 51.657 C 189.766 51.95 191.208 52.282 192.649 52.662 C 194.091 53.042 195.319 53.755 196.333 54.8 C 197.354 55.845 197.861 57.333 197.861 59.257 C 197.861 61.181 196.99 62.812 195.247 64.126 C 193.497 65.448 191.231 66.097 188.435 66.097 C 185.639 66.097 183.405 65.4 181.726 64.007 C 180.039 62.614 179.128 60.69 178.97 58.228 L 183.247 58.228 C 183.302 59.621 183.801 60.738 184.728 61.569 C 185.647 62.4 186.922 62.82 188.554 62.82 C 190.186 62.82 191.453 62.471 192.372 61.775 C 193.299 61.078 193.758 60.191 193.758 59.115 C 193.758 58.038 193.394 57.183 192.665 56.542 C 191.936 55.9 191.025 55.465 189.932 55.22 C 188.839 54.974 187.651 54.689 186.36 54.357 C 185.069 54.024 183.881 53.668 182.78 53.288 C 181.687 52.916 180.784 52.251 180.055 51.317 C 179.326 50.374 178.962 49.195 178.962 47.77"
     fill="rgb(255,255,255)"
     stroke="rgb(255,255,255)"
     stroke-miterlimit="10"
     stroke-dasharray=""
     id="path10" />
  <path
     d="M 178.97 47.77 C 178.97 45.672 179.841 43.914 181.584 42.466 C 183.326 41.025 185.584 40.304 188.364 40.304 C 191.144 40.304 193.323 41.009 194.891 42.418 C 196.467 43.827 197.339 45.759 197.489 48.221 L 193.212 48.221 C 193.148 46.828 192.681 45.704 191.802 44.856 C 190.923 44.009 189.703 43.582 188.142 43.582 C 186.582 43.582 185.346 43.954 184.451 44.698 C 183.556 45.442 183.112 46.4 183.112 47.564 C 183.112 48.728 183.619 49.63 184.641 50.272 C 185.655 50.913 186.891 51.372 188.324 51.657 C 189.766 51.95 191.208 52.282 192.649 52.662 C 194.091 53.042 195.319 53.755 196.333 54.8 C 197.354 55.845 197.861 57.333 197.861 59.257 C 197.861 61.181 196.99 62.812 195.247 64.126 C 193.497 65.448 191.231 66.097 188.435 66.097 C 185.639 66.097 183.405 65.4 181.726 64.007 C 180.039 62.614 179.128 60.69 178.97 58.228 L 183.247 58.228 C 183.302 59.621 183.801 60.738 184.728 61.569 C 185.647 62.4 186.922 62.82 188.554 62.82 C 190.186 62.82 191.453 62.471 192.372 61.775 C 193.299 61.078 193.758 60.191 193.758 59.115 C 193.758 58.038 193.394 57.183 192.665 56.542 C 191.936 55.9 191.025 55.465 189.932 55.22 C 188.839 54.974 187.651 54.689 186.36 54.357 C 185.069 54.024 183.881 53.668 182.78 53.288 C 181.687 52.916 180.784 52.251 180.055 51.317 C 179.326 50.374 178.962 49.195 178.962 47.77 Z"
     fill="transparent"
     stroke-width="1.14"
     stroke="rgb(255,255,255)"
     stroke-miterlimit="10"
     stroke-dasharray=""
     id="path12"
     style="fill:#000000" />
  <path
     d="M 211.652 62.329 L 215.066 62.329 L 215.066 65.693 L 210.876 65.693 C 206.535 65.693 204.373 63.556 204.373 59.281 L 204.373 44.089 L 201.141 44.089 L 201.141 40.724 L 204.373 40.724 L 204.373 34.541 L 208.555 34.541 L 208.555 40.724 L 215.019 40.724 L 215.019 44.089 L 208.555 44.089 L 208.555 59.281 C 208.555 60.405 208.785 61.189 209.236 61.648 C 209.696 62.099 210.496 62.329 211.652 62.329"
     fill="rgb(255,255,255)"
     stroke="rgb(255,255,255)"
     stroke-miterlimit="10"
     stroke-dasharray=""
     id="path14" />
  <path
     d="M 211.652 62.329 L 215.066 62.329 L 215.066 65.693 L 210.876 65.693 C 206.535 65.693 204.373 63.556 204.373 59.281 L 204.373 44.089 L 201.141 44.089 L 201.141 40.724 L 204.373 40.724 L 204.373 34.541 L 208.555 34.541 L 208.555 40.724 L 215.019 40.724 L 215.019 44.089 L 208.555 44.089 L 208.555 59.281 C 208.555 60.405 208.785 61.189 209.236 61.648 C 209.696 62.099 210.496 62.329 211.652 62.329 Z"
     fill="transparent"
     stroke-width="1.14"
     stroke="rgb(255,255,255)"
     stroke-miterlimit="10"
     stroke-dasharray=""
     id="path16"
     style="fill:#000000" />
  <path
     d="M 224.801 35.903 C 224.255 36.449 223.589 36.726 222.797 36.726 C 222.005 36.726 221.348 36.449 220.817 35.903 C 220.286 35.356 220.017 34.691 220.017 33.9 C 220.017 33.108 220.294 32.443 220.841 31.897 C 221.387 31.35 222.045 31.073 222.821 31.073 C 223.597 31.073 224.255 31.35 224.801 31.897 C 225.348 32.443 225.617 33.108 225.617 33.9 C 225.617 34.691 225.348 35.356 224.801 35.903 M 220.706 40.724 L 224.849 40.724 L 224.849 65.693 L 220.706 65.693 Z"
     fill="rgb(255,255,255)"
     stroke="rgb(255,255,255)"
     stroke-miterlimit="10"
     stroke-dasharray=""
     id="path18" />
  <path
     d="M 224.801 35.903 C 224.255 36.449 223.589 36.726 222.797 36.726 C 222.005 36.726 221.348 36.449 220.817 35.903 C 220.286 35.356 220.017 34.691 220.017 33.9 C 220.017 33.108 220.294 32.443 220.841 31.897 C 221.387 31.35 222.045 31.073 222.821 31.073 C 223.597 31.073 224.255 31.35 224.801 31.897 C 225.348 32.443 225.617 33.108 225.617 33.9 C 225.617 34.691 225.348 35.356 224.801 35.903 Z M 220.706 40.724 L 224.849 40.724 L 224.849 65.693 L 220.706 65.693 Z"
     fill="transparent"
     stroke-width="1.14"
     stroke="rgb(255,255,255)"
     stroke-miterlimit="10"
     stroke-dasharray=""
     id="path20"
     style="fill:#000000" />
  <path
     d="M 233.475 62.558 C 231.186 60.191 230.037 57.088 230.037 53.232 C 230.037 49.377 231.233 46.266 233.633 43.883 C 236.033 41.508 239.027 40.312 242.647 40.312 C 246.267 40.312 249.262 41.508 251.654 43.883 C 254.054 46.266 255.25 49.369 255.25 53.209 C 255.25 57.048 253.998 60.152 251.495 62.535 C 248.992 64.91 245.935 66.097 242.331 66.097 C 238.726 66.097 235.764 64.918 233.475 62.55 M 242.323 62.693 C 244.659 62.693 246.679 61.854 248.398 60.167 C 250.109 58.481 250.972 56.154 250.972 53.185 C 250.972 50.216 250.149 47.896 248.517 46.226 C 246.877 44.556 244.889 43.724 242.529 43.724 C 240.168 43.724 238.212 44.556 236.635 46.226 C 235.059 47.896 234.267 50.224 234.267 53.209 C 234.267 56.193 235.019 58.521 236.54 60.191 C 238.053 61.854 239.978 62.693 242.323 62.693 M 237.364 35.808 L 247.059 30.076 L 247.059 33.9 L 237.364 38.99 Z"
     fill="rgb(255,255,255)"
     stroke="rgb(255,255,255)"
     stroke-miterlimit="10"
     stroke-dasharray=""
     id="path22" />
  <path
     d="M 233.475 62.558 C 231.186 60.191 230.037 57.088 230.037 53.232 C 230.037 49.377 231.233 46.266 233.633 43.883 C 236.033 41.508 239.027 40.312 242.647 40.312 C 246.267 40.312 249.262 41.508 251.654 43.883 C 254.054 46.266 255.25 49.369 255.25 53.209 C 255.25 57.048 253.998 60.152 251.495 62.535 C 248.992 64.91 245.935 66.097 242.331 66.097 C 238.726 66.097 235.764 64.918 233.475 62.55 Z M 242.323 62.693 C 244.659 62.693 246.679 61.854 248.398 60.167 C 250.109 58.481 250.972 56.154 250.972 53.185 C 250.972 50.216 250.149 47.896 248.517 46.226 C 246.877 44.556 244.889 43.724 242.529 43.724 C 240.168 43.724 238.212 44.556 236.635 46.226 C 235.059 47.896 234.267 50.224 234.267 53.209 C 234.267 56.193 235.019 58.521 236.54 60.191 C 238.053 61.854 239.978 62.693 242.323 62.693 Z M 237.364 35.808 L 247.059 30.076 L 247.059 33.9 L 237.364 38.99 Z"
     fill="transparent"
     stroke-width="1.14"
     stroke="rgb(255,255,255)"
     stroke-miterlimit="10"
     stroke-dasharray=""
     id="path24"
     style="fill:#000000" />
  <path
     d="M 264.581 40.724 L 264.581 44.769 C 266.284 41.801 268.993 40.312 272.724 40.312 C 275.488 40.312 277.793 41.231 279.639 43.059 C 281.493 44.896 282.419 47.509 282.419 50.905 L 282.419 65.693 L 278.324 65.693 L 278.324 51.594 C 278.324 49.076 277.714 47.168 276.502 45.862 C 275.29 44.556 273.619 43.906 271.472 43.906 C 269.326 43.906 267.646 44.556 266.419 45.862 C 265.191 47.168 264.573 49.076 264.573 51.594 L 264.573 65.693 L 260.43 65.693 L 260.43 40.724 L 264.573 40.724 Z"
     fill="rgb(255,255,255)"
     stroke="rgb(255,255,255)"
     stroke-miterlimit="10"
     stroke-dasharray=""
     id="path26" />
  <path
     d="M 264.581 40.724 L 264.581 44.769 C 266.284 41.801 268.993 40.312 272.724 40.312 C 275.488 40.312 277.793 41.231 279.639 43.059 C 281.493 44.896 282.419 47.509 282.419 50.905 L 282.419 65.693 L 278.324 65.693 L 278.324 51.594 C 278.324 49.076 277.714 47.168 276.502 45.862 C 275.29 44.556 273.619 43.906 271.472 43.906 C 269.326 43.906 267.646 44.556 266.419 45.862 C 265.191 47.168 264.573 49.076 264.573 51.594 L 264.573 65.693 L 260.43 65.693 L 260.43 40.724 L 264.573 40.724 Z"
     fill="transparent"
     stroke-width="1.14"
     stroke="rgb(255,255,255)"
     stroke-miterlimit="10"
     stroke-dasharray=""
     id="path28"
     style="fill:#000000" />
  <path
     d="M 292.138 62.614 C 289.121 59.186 287.616 55.045 287.616 50.184 C 287.616 45.324 289.121 41.167 292.138 37.7 C 295.117 34.272 298.729 32.554 302.99 32.554 C 306.499 32.554 309.454 33.496 311.87 35.38 C 314.278 37.225 315.767 39.711 316.337 42.838 L 314.072 42.838 C 313.66 40.502 312.401 38.563 310.286 37.019 C 308.21 35.475 305.779 34.699 302.99 34.699 C 299.37 34.699 296.281 36.203 293.723 39.22 C 291.156 42.276 289.873 45.925 289.873 50.184 C 289.873 54.444 291.156 58.093 293.723 61.149 C 296.289 64.165 299.378 65.67 302.99 65.67 C 306.08 65.67 308.63 64.767 310.626 62.954 C 312.662 61.149 313.811 58.742 314.072 55.726 L 316.337 55.726 C 316.036 59.384 314.658 62.297 312.211 64.482 C 309.803 66.667 306.729 67.76 302.99 67.76 C 298.729 67.76 295.117 66.05 292.138 62.622 M 322.255 63.912 C 320.187 61.648 319.149 58.64 319.149 54.871 C 319.149 51.103 320.187 47.865 322.255 45.49 C 324.29 43.154 327.023 41.991 330.453 41.991 C 333.883 41.991 336.576 43.154 338.651 45.49 C 340.687 47.865 341.709 50.992 341.709 54.871 C 341.709 58.75 340.687 61.656 338.651 63.912 C 336.576 66.176 333.843 67.301 330.453 67.301 C 327.063 67.301 324.29 66.168 322.255 63.912 M 337.012 62.558 C 338.635 60.635 339.443 58.077 339.443 54.871 C 339.443 51.665 338.635 48.918 337.012 46.962 C 335.356 44.967 333.17 43.97 330.453 43.97 C 327.736 43.97 325.518 44.967 323.894 46.962 C 322.231 48.918 321.407 51.562 321.407 54.871 C 321.407 58.18 322.239 60.635 323.894 62.558 C 325.518 64.482 327.704 65.44 330.453 65.44 C 333.202 65.44 335.356 64.482 337.012 62.558 M 347.048 66.913 L 347.048 42.838 L 349.313 42.838 L 349.313 46.907 C 349.986 45.474 350.953 44.35 352.196 43.519 C 353.44 42.648 354.779 42.22 356.204 42.22 C 357.9 42.22 359.389 42.671 360.672 43.574 C 361.987 44.516 362.842 45.704 363.215 47.136 C 363.928 45.632 365.005 44.445 366.431 43.574 C 367.904 42.671 369.504 42.22 371.239 42.22 C 373.393 42.22 375.231 42.956 376.783 44.421 C 378.288 45.894 379.049 47.659 379.049 49.733 L 379.049 66.913 L 376.783 66.913 L 376.783 49.733 C 376.783 48.15 376.237 46.796 375.144 45.664 C 374.09 44.532 372.783 43.97 371.239 43.97 C 369.464 43.97 367.888 44.587 366.486 45.83 C 365.092 47.073 364.229 48.656 363.888 50.572 L 363.888 66.905 L 361.622 66.905 L 361.622 49.725 C 361.622 48.142 361.108 46.788 360.102 45.656 C 359.08 44.524 357.86 43.962 356.426 43.962 C 354.731 43.962 353.202 44.619 351.848 45.933 C 350.525 47.295 349.677 48.989 349.305 51.016 L 349.305 66.897 L 347.04 66.897 Z M 385.219 75.946 L 385.219 42.838 L 387.477 42.838 L 387.477 47.809 C 388.119 46.076 389.188 44.666 390.701 43.574 C 392.206 42.521 393.869 41.991 395.675 41.991 C 398.915 41.991 401.497 43.154 403.422 45.49 C 405.379 47.865 406.361 50.992 406.361 54.871 C 406.361 58.75 405.418 61.656 403.533 63.912 C 401.687 66.176 399.2 67.301 396.063 67.301 C 394.218 67.301 392.523 66.794 390.978 65.773 C 389.433 64.791 388.269 63.453 387.477 61.759 L 387.477 75.938 L 385.219 75.938 Z M 401.846 62.669 C 403.351 60.635 404.103 57.959 404.103 54.642 C 404.103 51.324 403.351 48.696 401.846 46.733 C 400.373 44.738 398.392 43.74 395.905 43.74 C 393.568 43.74 391.596 44.809 389.972 46.962 C 388.317 49.068 387.485 51.633 387.485 54.649 C 387.485 57.666 388.317 60.302 389.972 62.448 C 391.596 64.593 393.568 65.67 395.905 65.67 C 398.392 65.67 400.373 64.672 401.846 62.677 M 413.427 65.78 C 411.731 64.427 410.884 62.804 410.884 60.92 C 410.884 59.035 411.716 57.531 413.371 56.17 C 414.995 54.816 417.031 54.024 419.478 53.794 C 421.855 53.565 423.795 53.193 425.3 52.662 C 426.845 52.132 427.621 51.514 427.621 50.802 L 427.621 48.656 C 427.621 47.414 426.94 46.361 425.585 45.49 C 424.271 44.627 422.647 44.191 420.722 44.191 C 418.916 44.191 417.347 44.603 416.033 45.434 C 414.749 46.305 414.108 47.319 414.108 48.49 L 414.108 49.733 L 411.961 49.733 L 411.961 48.269 C 411.961 46.646 412.809 45.276 414.504 44.144 C 416.239 43.02 418.314 42.45 420.722 42.45 C 423.13 42.45 425.34 42.996 427.114 44.089 C 428.889 45.181 429.776 46.503 429.776 48.047 L 429.776 62.622 C 429.776 63.564 429.982 64.371 430.394 65.052 C 430.813 65.725 431.32 66.065 431.922 66.065 C 432.112 66.065 432.287 66.05 432.429 66.01 C 432.58 65.978 432.691 65.915 432.77 65.844 L 432.77 66.92 C 432.2 67.182 431.487 67.316 430.623 67.316 C 429.76 67.316 428.999 66.936 428.358 66.184 C 427.756 65.432 427.455 64.53 427.455 63.469 C 427.003 64.751 426.037 65.78 424.572 66.572 C 423.098 67.364 421.403 67.76 419.486 67.76 C 417.11 67.76 415.09 67.103 413.434 65.78 M 424.785 64.086 C 426.33 62.804 427.273 61.165 427.613 59.17 L 427.613 53.628 C 427.083 54.079 426.124 54.459 424.73 54.76 C 423.407 55.061 421.657 55.307 419.47 55.497 C 417.696 55.647 416.207 56.249 415.003 57.302 C 413.791 58.323 413.197 59.526 413.197 60.92 C 413.197 62.313 413.823 63.556 415.058 64.538 C 416.262 65.559 417.736 66.065 419.47 66.065 C 421.466 66.065 423.233 65.408 424.785 64.086 M 436.754 66.913 L 436.754 42.838 L 439.012 42.838 L 439.012 48.261 C 439.653 46.527 440.588 45.118 441.84 44.025 C 443.123 42.972 444.477 42.442 445.911 42.442 L 447.21 42.442 L 447.21 45.046 C 447.099 45.046 446.965 45.007 446.814 44.936 C 446.703 44.856 446.624 44.825 446.584 44.825 C 444.81 44.825 443.21 45.577 441.776 47.089 C 440.342 48.593 439.416 50.501 439.004 52.797 L 439.004 66.921 L 436.746 66.921 Z M 454.505 66.232 C 453.634 65.25 453.206 64.047 453.206 62.614 L 453.206 44.587 L 449.761 44.587 L 449.761 42.838 L 453.206 42.838 L 453.206 35.998 L 455.464 35.998 L 455.464 42.838 L 458.743 42.838 L 458.743 44.587 L 455.464 44.587 L 455.464 62.614 C 455.464 63.556 455.709 64.363 456.201 65.044 C 456.652 65.717 457.214 66.065 457.896 66.065 C 458.609 66.065 459.195 65.931 459.646 65.67 L 459.646 67.308 C 458.815 67.609 458.173 67.76 457.721 67.76 C 456.478 67.76 455.401 67.253 454.497 66.232 M 465.841 33.401 L 468.106 33.401 L 468.106 36.845 L 465.841 36.845 Z M 465.841 42.838 L 468.106 42.838 L 468.106 66.913 L 465.841 66.913 Z M 476.447 63.801 C 474.372 61.355 473.334 58.378 473.334 54.871 C 473.334 51.364 474.372 48.3 476.447 45.775 C 478.514 43.249 481.002 41.991 483.909 41.991 C 485.754 41.991 487.449 42.537 489.002 43.629 C 490.507 44.761 491.6 46.226 492.281 48.039 L 492.281 33.401 L 494.539 33.401 L 494.539 66.913 L 492.281 66.913 L 492.281 61.996 C 491.671 63.651 490.602 64.989 489.049 66.002 C 487.544 67.023 485.833 67.53 483.909 67.53 C 481.009 67.53 478.522 66.287 476.447 63.801 M 489.849 62.614 C 491.465 60.468 492.281 57.887 492.281 54.871 C 492.281 51.855 491.465 49.298 489.849 47.184 C 488.186 45.039 486.206 43.962 483.909 43.962 C 481.611 43.962 479.655 45.039 478.031 47.184 C 476.407 49.298 475.599 51.855 475.599 54.871 C 475.599 57.887 476.407 60.468 478.031 62.614 C 479.655 64.759 481.611 65.836 483.909 65.836 C 486.206 65.836 488.186 64.759 489.849 62.614 M 502.341 65.78 C 500.646 64.427 499.798 62.804 499.798 60.92 C 499.798 59.035 500.622 57.531 502.286 56.17 C 503.901 54.816 505.937 54.024 508.393 53.794 C 510.769 53.565 512.71 53.193 514.215 52.662 C 515.751 52.132 516.528 51.514 516.528 50.802 L 516.528 48.656 C 516.528 47.414 515.854 46.361 514.492 45.49 C 513.169 44.627 511.553 44.191 509.628 44.191 C 507.814 44.191 506.254 44.603 504.931 45.434 C 503.648 46.305 503.006 47.319 503.006 48.49 L 503.006 49.733 L 500.86 49.733 L 500.86 48.269 C 500.86 46.646 501.707 45.276 503.402 44.144 C 505.137 43.02 507.212 42.45 509.621 42.45 C 512.029 42.45 514.239 42.996 516.013 44.089 C 517.779 45.181 518.666 46.503 518.666 48.047 L 518.666 62.622 C 518.666 63.564 518.88 64.371 519.292 65.052 C 519.712 65.725 520.219 66.065 520.821 66.065 C 521.011 66.065 521.177 66.05 521.328 66.01 C 521.478 65.978 521.589 65.915 521.669 65.844 L 521.669 66.92 C 521.106 67.182 520.385 67.316 519.514 67.316 C 518.643 67.316 517.898 66.936 517.256 66.184 C 516.654 65.432 516.346 64.53 516.346 63.469 C 515.894 64.751 514.936 65.78 513.462 66.572 C 511.989 67.364 510.294 67.76 508.377 67.76 C 506.001 67.76 503.981 67.103 502.325 65.78 M 513.708 64.086 C 515.252 62.804 516.195 61.165 516.536 59.17 L 516.536 53.628 C 516.013 54.079 515.046 54.459 513.652 54.76 C 512.33 55.061 510.579 55.307 508.393 55.497 C 506.618 55.647 505.129 56.249 503.925 57.302 C 502.721 58.323 502.119 59.526 502.119 60.92 C 502.119 62.313 502.737 63.556 503.981 64.538 C 505.193 65.559 506.658 66.065 508.393 66.065 C 510.389 66.065 512.163 65.408 513.708 64.086"
     fill="rgb(255,255,255)"
     id="path30"
     style="fill:#070707;fill-opacity:1" />
  <path
     d="M 28.825 33.266 L 57.65 16.633 L 28.825 0 L 0 16.633 L 0 49.907 L 28.825 66.54 L 28.833 66.54 L 28.825 66.54 Z"
     fill="rgb(68,187,208)"
     id="path32" />
  <path
     d="M 57.658 16.633 L 57.658 49.907 L 28.833 66.54 L 57.658 83.174 L 86.483 66.54 L 86.483 33.266 Z"
     fill="rgb(250,212,32)"
     id="path34" />
  <path
     d="M 57.658 16.633 L 28.825 33.266 L 28.825 66.54 L 28.833 66.54 L 57.658 49.907 Z"
     fill="rgb(68,171,134)"
     id="path36" />
</svg>
