<svg xmlns="http://www.w3.org/2000/svg" width="120" height="48" viewBox="0 0 120 48" fill="none"><path d="M60.6993 24.3264V22.0895H55.3846V9.69336H52.6807V24.3264H60.6993Z" fill="#002C5B"/><path d="M65.0819 24.3264V9.69336H62.3779V24.3264H65.0819Z" fill="#002C5B"/><path d="M81.306 24.3264V9.69336H78.602V17.8953C78.602 18.5477 78.602 19.3866 78.602 20.039C78.2291 19.4798 77.8561 18.9205 77.1102 17.9885L70.6766 9.69336H67.9727V24.3264H70.6766V15.6584C70.6766 15.006 70.6766 14.1671 70.5834 13.7011C70.9563 14.3536 71.4225 14.9128 72.0752 15.7516L78.6953 24.3264H81.306Z" fill="#002C5B"/><path d="M96.8775 16.8701C96.8775 12.5827 94.0802 9.69336 88.7656 9.69336H84.29V24.3264H88.5791C93.7073 24.3264 96.8775 21.2506 96.8775 16.8701ZM93.987 16.9633C93.987 19.6662 92.4952 22.0895 88.6723 22.0895H86.994V11.9303H88.6723C92.2154 11.9303 93.987 13.9807 93.987 16.9633Z" fill="#002C5B"/><path d="M110.397 24.3258L104.523 9.59961H102.565L96.877 24.3258H99.4877L100.886 20.6909H106.108L107.6 24.3258H110.397ZM105.175 18.454H101.632L102.938 15.0054C103.217 14.353 103.404 13.7006 103.497 13.2346C103.59 13.7006 103.777 14.353 104.056 15.0986L105.175 18.454Z" fill="#002C5B"/><path d="M120.001 24.3264V22.0895H114.686V9.69336H111.982V24.3264H120.001Z" fill="#002C5B"/><path d="M58.3683 32.8074V30.1045H57.2494V32.2482C57.063 32.3414 56.69 32.4346 56.2238 32.4346C54.8252 32.4346 53.986 31.4093 53.986 30.1045C53.986 28.8928 54.7319 27.8676 56.317 27.8676C56.9697 27.8676 57.5291 28.054 58.0886 28.3336V27.2152C57.6224 27.0288 57.0629 26.9355 56.2238 26.9355C54.0793 26.9355 52.6807 28.3336 52.6807 30.1977C52.6807 31.9686 53.8928 33.3666 55.8508 33.3666C56.9697 33.3666 57.8089 33.087 58.3683 32.8074Z" fill="#002C5B"/><path d="M64.2426 33.2734C63.3102 31.6889 62.6575 30.5705 62.3778 30.3841C62.9372 30.1045 63.5899 29.5453 63.5899 28.7064C63.5899 27.7744 62.9372 26.9355 61.3522 26.9355H59.6738V33.2734H60.7927V30.7569H61.3522C61.6319 30.8501 62.0048 31.5957 63.0305 33.2734H64.2426ZM62.3778 28.8928C62.3778 29.4521 61.9116 29.9181 61.3522 29.9181H60.7927V27.9608H61.3522C62.0048 27.9608 62.3778 28.4268 62.3778 28.8928Z" fill="#002C5B"/><path d="M71.143 30.1977C71.143 29.3588 70.8633 28.52 70.3039 27.9608C69.7444 27.3084 68.9053 26.9355 67.8796 26.9355C66.9472 26.9355 66.1081 27.3084 65.5486 27.8676C64.9892 28.4268 64.6162 29.2656 64.6162 30.1977C64.6162 31.2229 64.9892 32.0618 65.6419 32.621C66.2013 33.087 66.9472 33.3666 67.8796 33.3666C68.812 33.3666 69.6512 32.9938 70.2106 32.4346C70.7701 31.9686 71.143 31.1297 71.143 30.1977ZM69.8377 30.1977C69.8377 31.5957 68.9985 32.4346 67.8796 32.4346C66.6675 32.4346 65.8283 31.5957 65.8283 30.1977C65.8283 28.7996 66.6675 27.9608 67.8796 27.9608C69.0917 27.8676 69.8377 28.7996 69.8377 30.1977Z" fill="#002C5B"/><path d="M77.3894 30.9439V27.0293H76.2705V31.0371C76.2705 31.5031 76.1773 31.7827 75.8976 32.0623C75.6179 32.3419 75.2449 32.4351 74.7787 32.4351C74.3125 32.4351 73.9395 32.3419 73.6598 32.0623C73.3801 31.7827 73.2868 31.4099 73.2868 30.9439V27.0293H72.168V31.0371C72.168 31.6895 72.3544 32.4351 72.8206 32.8079C73.2868 33.1808 73.9395 33.4604 74.7787 33.4604C75.7111 33.4604 76.3638 33.1808 76.83 32.7147C77.2029 32.2487 77.3894 31.6895 77.3894 30.9439Z" fill="#002C5B"/><path d="M82.5182 28.986C82.5182 27.6812 81.5858 26.9355 80.2804 26.9355H78.6953V33.2734H79.8142V31.0365H80.0939C81.9587 31.1297 82.5182 29.9181 82.5182 28.986ZM81.3993 29.0792C81.3993 29.7317 81.0263 30.1977 80.1872 30.1977H79.8142V27.9608H80.1872C81.0263 27.9608 81.3993 28.4268 81.3993 29.0792Z" fill="#002C5B"/><path d="M23.9633 0C37.2034 0 47.926 10.7184 47.926 23.9534C47.926 37.1884 37.2034 48 23.9633 48C10.7232 48 0.000603504 37.2816 0.000603504 23.9534C-0.0926366 10.7184 10.63 0 23.9633 0ZM23.9633 5.96505C13.9866 5.96505 5.96797 13.9806 5.96797 23.9534C5.96797 33.9262 13.9866 41.9417 23.9633 41.9417C33.94 41.9417 41.9586 33.9262 41.9586 23.9534C41.9586 14.0738 33.8468 5.96505 23.9633 5.96505Z" fill="#002C5B"/><path d="M23.6835 15.3789L20.6066 28.9867H26.2943L27.1334 33.2741H12.9609L20.7931 15.3789H23.6835Z" fill="#002C5B"/><path d="M27.1337 15.2852L34.8726 33.2735H28.812L24.6162 15.2852H27.1337Z" fill="#002C5B"/><path d="M21.6328 11.9297C21.6328 10.6249 22.6585 9.59961 23.9638 9.59961C25.2692 9.59961 26.2948 10.6249 26.2948 11.9297C26.2948 13.2346 25.2692 14.2598 23.9638 14.2598C22.6585 14.2598 21.6328 13.2346 21.6328 11.9297Z" fill="#002C5B"/></svg>