<svg xmlns="http://www.w3.org/2000/svg" width="200" height="62" viewBox="0 0 200 62" fill="none">
<path d="M54.198 32.2879C54.1954 32.6631 54.2612 33.0356 54.3921 33.3881C54.7654 34.4114 55.9413 34.6241 56.9305 34.6241C57.8002 34.6241 59.1329 34.3418 59.1329 33.0801C59.1329 32.2035 58.3864 31.9798 55.4 31.1326C52.6674 30.3734 49.5505 29.6362 49.5505 26.2143C49.5505 22.2974 52.9586 20.6066 56.5124 20.6066C60.2453 20.6066 63.5752 22.0113 63.7208 26.1446H58.7C58.7482 25.8826 58.7141 25.6124 58.6021 25.3698C58.49 25.1274 58.3054 24.9243 58.0728 24.7876C57.6042 24.4941 57.0566 24.3459 56.5012 24.3622C55.7733 24.3622 54.59 24.5529 54.59 25.5028C54.687 26.7131 57.1545 26.9698 59.5958 27.641C62.0372 28.3121 64.4486 29.4235 64.4486 32.5336C64.4486 36.953 60.3125 38.3798 56.4676 38.3798C54.5078 38.3798 48.9233 37.6903 48.8748 32.2732L54.198 32.2879Z" fill="#333132"/>
<path d="M64.8184 21.0283H69.604V26.9846H69.6525C70.4774 26.0383 71.519 25.3488 73.5721 25.3488C75.8118 25.3488 77.8762 26.7021 77.8762 29.5298V37.9874H73.0868V31.5287C73.0868 30.102 72.9189 29.1045 71.5153 29.1045C70.694 29.1045 69.604 29.5079 69.604 31.481V37.9874H64.8184V21.0283Z" fill="#333132"/>
<path d="M85.5884 38.2992C80.8737 38.2992 78.7458 35.233 78.7458 31.8111C78.7458 28.3894 80.8737 25.3525 85.5884 25.3525C90.3032 25.3525 92.4309 28.393 92.4309 31.8111C92.4309 35.2294 90.3032 38.2992 85.5884 38.2992ZM85.5884 28.7634C83.7743 28.7634 83.5316 30.4945 83.5316 31.8002C83.5316 33.1059 83.7743 34.8663 85.5884 34.8663C87.4027 34.8663 87.6416 33.1059 87.6416 31.8002C87.6416 30.4945 87.4213 28.7744 85.5884 28.7744V28.7634Z" fill="#333132"/>
<path d="M93.3008 25.6606H97.9184V27.014H97.9669C98.5717 26.2291 99.2959 25.3525 101.644 25.3525C105.198 25.3525 106.915 28.7964 106.915 31.8845C106.915 34.782 105.776 38.2992 101.569 38.2992C100.903 38.3161 100.242 38.1734 99.6445 37.8833C99.0468 37.5932 98.53 37.1644 98.1386 36.6341H98.0901V41.9815H93.3008V25.6606ZM100.02 34.8773C101.737 34.8773 102.122 33.2856 102.122 31.8368C102.122 30.3881 101.748 28.7744 100.02 28.7744C98.2917 28.7744 97.9146 30.3625 97.9146 31.8368C97.9146 33.3113 98.3066 34.8773 100.024 34.8773H100.02Z" fill="#333132"/>
<path d="M120.48 36.2562C119.293 37.7526 117.457 38.3944 115.572 38.3944C110.469 38.3944 107.325 34.4958 107.325 29.6766C107.325 23.2142 111.943 20.6212 115.837 20.6212C120.238 20.6212 123.019 22.9759 123.792 26.9663H118.689C118.599 26.376 118.295 25.8374 117.834 25.4493C117.372 25.0613 116.784 24.8497 116.176 24.8537C112.522 24.8537 112.645 28.6276 112.645 29.794C112.645 31.3857 113.298 34.1658 116.538 34.1658C117.77 34.1658 119.028 33.5459 119.293 32.2879H116.949V28.6533H124.004V37.9874H120.645L120.48 36.2562Z" fill="#333132"/>
<path d="M137.6 35.233C137.6 36.1609 137.644 37.2062 138.179 37.9911H133.296C133.168 37.6156 133.109 37.2205 133.124 36.8247H133.075C132.06 37.9654 130.585 38.2918 129.04 38.2918C126.621 38.2918 124.613 37.1511 124.613 34.5619C124.613 30.6668 129.257 30.8062 131.705 30.3552C132.359 30.2377 133.012 30.0471 133.012 29.2548C133.012 28.4626 132.213 28.1179 131.44 28.1179C129.966 28.1179 129.675 28.8514 129.652 29.3758H125.195C125.341 25.9063 128.674 25.3416 131.649 25.3416C137.644 25.3416 137.6 27.7878 137.6 30.1644V35.233ZM133.005 32.453C132.403 32.7247 131.77 32.9243 131.119 33.0471C130.052 33.2856 129.499 33.546 129.499 34.3784C129.499 34.9469 130.126 35.5191 130.992 35.5191C132.082 35.5191 132.93 34.8773 133.001 33.5936L133.005 32.453Z" fill="#333132"/>
<path d="M139.027 21.0283H143.812V37.9874H139.027V21.0283Z" fill="#333132"/>
<path d="M145.432 21.0283H150.221V37.9874H145.432V21.0283Z" fill="#333132"/>
<path d="M155.779 32.8822C155.903 34.2831 156.724 35.2807 158.22 35.2807C158.997 35.2807 159.844 34.9947 160.229 34.4005H164.708C163.741 37.0632 161.107 38.2992 158.255 38.2992C154.241 38.2992 151.217 35.9703 151.217 31.8589C151.217 28.272 153.876 25.3525 157.844 25.3525C162.824 25.3525 164.977 28.0849 164.977 32.8822H155.779ZM160.375 30.4359C160.38 30.1628 160.331 29.8915 160.227 29.638C160.124 29.3846 159.969 29.1544 159.773 28.9612C159.576 28.7678 159.343 28.6157 159.084 28.5136C158.827 28.4116 158.551 28.3619 158.273 28.3673C156.843 28.3673 156.033 29.1008 155.805 30.4359H160.375Z" fill="#333132"/>
<path d="M165.769 25.6605H170.36V27.6336H170.409C171.181 26.1666 172.197 25.3524 173.94 25.3524C174.415 25.355 174.887 25.4192 175.344 25.5431V29.6985C174.741 29.4745 174.099 29.3698 173.455 29.3904C171.569 29.3904 170.555 30.4907 170.555 33.1168V37.9872H165.769V25.6605Z" fill="#333132"/>
<path d="M183.873 37.0411C183.5 38.1414 183.048 39.5313 182.299 40.4593C181.04 42.0033 179.107 41.9814 177.244 41.9814H175.071V38.2293H176.191C176.676 38.2293 177.311 38.2771 177.643 38.1083C177.976 37.9396 178.103 37.7416 178.103 37.1841C178.103 36.6266 176.265 32.0495 176.001 31.3379L173.873 25.6605H178.999L181.003 32.739H181.052L183.085 25.6605H188.044L183.873 37.0411Z" fill="#333132"/>
<path d="M42.6895 22.279C43.2936 22.3821 43.8643 22.6247 44.3544 22.9869C42.6097 19.3227 39.6191 16.3709 35.8976 14.6401C32.176 12.9093 27.9567 12.5078 23.9663 13.5047C19.9759 14.5018 16.4643 16.8348 14.0364 20.1019C11.6085 23.3692 10.4163 27.366 10.6652 31.4039C10.9141 35.4417 12.5885 39.2681 15.4 42.2235C18.2115 45.1788 21.984 47.0785 26.0676 47.595C30.1513 48.1116 34.2905 47.2127 37.7723 45.0533C41.254 42.8939 43.8603 39.6092 45.142 35.7648C44.5915 36.1159 43.958 36.3215 43.3029 36.3618C42.6477 36.402 41.9932 36.2755 41.4024 35.9946C40.8116 35.7135 40.3047 35.2875 39.9304 34.7577C39.5563 34.2278 39.3275 33.6122 39.2663 32.9701C39.0024 32.9948 38.7363 32.985 38.4749 32.9407C37.7784 32.8261 37.1428 32.481 36.6735 31.9625C36.2043 31.4439 35.9296 30.7833 35.8952 30.0904C35.8607 29.3974 36.0685 28.7136 36.4841 28.1526C36.8999 27.5916 37.4983 27.1874 38.18 27.0065C38.018 26.4662 37.9848 25.8965 38.0829 25.3414C38.4227 23.317 40.6139 21.9379 42.6895 22.279ZM20.2917 19.0332C20.9972 17.8119 21.9044 16.7189 21.7849 16.796C22.0052 16.4952 22.2141 16.2128 22.4083 15.9561C23.274 15.6042 24.1697 15.328 25.0848 15.1309C26.0328 14.9197 26.9989 14.7969 27.9704 14.7641C29.0436 14.7159 30.1189 14.7724 31.1808 14.9328C31.8228 15.0255 32.4577 15.1615 33.0808 15.3399C32.8717 15.5343 32.6255 15.7911 32.3343 16.1065C31.6039 16.9389 30.9505 17.8336 30.3819 18.7802C29.6671 18.5991 28.9415 18.4618 28.2093 18.3694C25.666 18.0341 23.0783 18.2724 20.6427 19.0663L20.12 19.2495C20.1947 19.1835 20.2283 19.1029 20.2917 19.0332ZM21.2623 31.4628C20.7763 31.6027 20.3049 31.7881 19.8549 32.0165C19.5755 31.5091 19.3263 30.9861 19.1084 30.4505C18.85 29.8466 18.6452 29.2221 18.4961 28.5836C19.2285 27.9839 20.0508 27.499 20.9337 27.1459C22.4729 26.5394 24.1332 26.2885 25.7867 26.4125C26.2513 26.4428 26.7139 26.5004 27.1716 26.5848C26.8916 27.432 26.6191 28.3232 26.3689 29.2255C26.1711 29.904 25.9957 30.5825 25.7979 31.25L25.5067 31.1986C24.0892 30.9825 22.6407 31.0726 21.2623 31.4628ZM25.2864 33.1205C25.1072 33.854 24.9429 34.5214 24.8012 35.1449C24.1583 35.0744 23.5077 35.1217 22.8824 35.2843C22.6921 35.3363 22.5063 35.4026 22.3261 35.4824C21.8129 34.9031 21.332 34.2972 20.8853 33.667C21.0905 33.5753 21.2921 33.4946 21.4975 33.4248C22.5548 33.0692 23.6784 32.944 24.79 33.0581C24.9728 33.0764 25.1408 33.0948 25.2864 33.1205ZM18.1603 26.3978C18.1215 25.6951 18.1615 24.9904 18.2796 24.2962C18.4075 23.5026 18.6201 22.7244 18.9143 21.9746C19.4724 21.6563 20.0539 21.3794 20.6539 21.1457C22.7315 20.3486 24.9679 20.0311 27.1903 20.2179C27.9437 20.2719 28.6924 20.3798 29.43 20.5406C29.2433 20.9294 28.5603 22.5687 27.7912 24.7253C27.4664 24.6593 27.0708 24.5897 26.6079 24.5273C24.6279 24.2872 22.6181 24.5006 20.736 25.1508C19.8268 25.4568 18.9611 25.8758 18.1603 26.3978ZM27.2052 33.6046C28.2591 33.9695 29.2313 34.5313 30.0683 35.2587C30.5291 35.6622 30.9411 36.1163 31.2965 36.612C30.3712 37.0567 29.4097 37.4247 28.4221 37.7122C28.15 37.1461 27.7551 36.6455 27.2649 36.2453C27.082 36.088 26.8873 35.9446 26.6825 35.8162C26.8319 35.1377 27.0073 34.3932 27.2052 33.6046ZM30.1317 33.1939C29.3831 32.6114 28.5565 32.1326 27.6755 31.7708C27.8472 31.1436 28.0264 30.4982 28.2093 29.8637C28.4781 28.9027 28.7692 27.9565 29.0567 27.0689C29.2321 27.1275 29.43 27.1937 29.6204 27.2707C31.0395 27.8359 32.3347 28.6639 33.4355 29.7096C33.5885 29.8526 33.7341 29.9993 33.8723 30.146C33.9024 31.163 34.2605 32.1441 34.8951 32.9481C35.1173 33.2263 35.3673 33.4819 35.6416 33.7109C35.1765 34.1408 34.6855 34.5425 34.1708 34.914C33.6445 35.2968 33.0961 35.6494 32.5284 35.9702C31.9303 34.894 31.1148 33.9492 30.1317 33.1939ZM18.2723 18.4537C18.6592 18.127 19.0629 17.8197 19.4817 17.5332C19.1116 17.9394 18.7664 18.3668 18.4476 18.8132C18.046 19.3639 17.6855 19.9424 17.3688 20.5443L17.3165 20.6542C16.306 21.2959 15.3807 22.0585 14.5616 22.9246C15.4989 21.2166 16.7581 19.6994 18.2723 18.4537ZM13.326 34.4299C12.7666 32.0191 13.014 29.4954 14.0316 27.234C14.5857 26.0037 15.3665 24.8846 16.3348 23.9331C16.1247 25.2442 16.1247 26.5794 16.3348 27.8904C15.576 28.6529 14.9403 29.5249 14.4496 30.4761C13.8059 31.7055 13.4236 33.0506 13.326 34.4299ZM16.5439 35.1633C16.0576 36.0809 15.7932 37.0961 15.7711 38.1304C15.0292 36.0283 15.1212 33.7286 16.0287 31.6901C16.2644 31.1734 16.5533 30.6818 16.8911 30.223C16.9805 30.4944 17.0813 30.7659 17.1896 31.0263C17.4788 31.7392 17.8155 32.4327 18.1976 33.1022C17.5152 33.6843 16.9537 34.3903 16.5439 35.1816V35.1633ZM18.3617 40.9947C17.9804 40.2749 17.7659 39.4809 17.7336 38.6699C17.7013 37.859 17.8521 37.0509 18.1752 36.3039C18.4321 35.7352 18.7956 35.2188 19.2465 34.7818C19.7429 35.4787 20.2507 36.1095 20.7397 36.667C20.6095 36.8333 20.4957 37.0114 20.4 37.1988C19.9497 38.076 19.8705 39.0924 20.1797 40.0265C19.3511 40.3934 18.7351 40.7014 18.7388 40.7088C18.7425 40.716 18.5857 40.8298 18.3617 40.9947ZM22.7107 44.6991C22.5464 44.6441 22.3859 44.5781 22.2216 44.5083H22.1881C21.7513 44.3177 21.3183 44.1123 20.8927 43.8849C20.334 43.4924 19.8252 43.0357 19.3772 42.5242L19.5639 42.4802C19.5639 42.4802 20.2768 42.1135 21.1876 41.7209C21.6745 42.2422 22.2637 42.6614 22.9197 42.9533C22.8003 43.507 22.7069 43.9032 22.6995 43.9032C22.692 43.9032 22.7181 44.3323 22.7256 44.6991H22.7107ZM27.2649 45.3298C26.5509 45.4597 25.8216 45.4869 25.0997 45.4106C24.7639 45.341 24.4353 45.2638 24.1031 45.1649C24.2881 44.9181 24.4564 44.6595 24.6071 44.3911C24.6071 44.3911 24.7116 43.9913 24.8384 43.4191C25.2049 43.4462 25.5733 43.4302 25.936 43.3714C26.0779 43.3531 26.2159 43.3238 26.3465 43.2944C26.9289 44.1562 27.3545 44.9045 27.3508 44.9045C27.3471 44.9045 27.4776 45.0548 27.6493 45.2529C27.5411 45.2822 27.4105 45.3226 27.2799 45.3226L27.2649 45.3298ZM27.948 40.65C27.6827 40.6073 27.4128 40.5999 27.1455 40.628C27.0895 40.628 27.082 40.628 27.0671 40.6574C26.9004 40.8785 26.6891 41.0632 26.4461 41.2003C26.2033 41.3372 25.9343 41.4233 25.656 41.4533C24.9961 41.5407 24.3247 41.4387 23.7225 41.1596C23.1204 40.8803 22.6135 40.4358 22.2627 39.8799C22.0996 39.6257 22.0009 39.337 21.9749 39.0376C21.9489 38.7383 21.9964 38.4373 22.1135 38.1598C22.2276 37.9265 22.3907 37.7196 22.5921 37.5527C22.7935 37.3858 23.0285 37.2627 23.2819 37.1914C23.8424 37.0162 24.4424 37.0034 25.0101 37.1549C25.5899 37.2401 26.1384 37.4672 26.6055 37.8152C27.0724 38.1633 27.4429 38.6209 27.6829 39.1464C27.9891 39.8028 27.9144 40.4484 28.0227 40.6683L27.948 40.65ZM32.5097 42.3885C32.4837 42.385 32.4573 42.385 32.4313 42.3885C32.0392 42.459 31.6711 42.6242 31.3599 42.869C31.2988 42.8987 31.2472 42.9444 31.2107 43.001C30.9555 43.3602 30.6529 43.6845 30.3109 43.9656C29.9979 44.2262 29.6575 44.4537 29.2956 44.6441C29.2135 44.2773 29.1313 44.0242 29.1313 44.0242C29.1313 44.0242 28.7133 43.2907 28.1347 42.3922C28.3433 42.2098 28.5311 42.0057 28.6947 41.7833C28.7155 41.7231 28.7255 41.6598 28.7245 41.5963C28.7275 41.4173 28.6799 41.2408 28.5869 41.0867C28.494 40.9326 28.3595 40.8068 28.1981 40.7234C28.2852 40.6783 28.3596 40.6128 28.4147 40.5327C28.6095 40.2612 28.7315 39.9459 28.7692 39.6158L28.9484 39.5681C30.072 39.2444 31.1659 38.8285 32.2185 38.3247C32.2559 38.4641 32.3045 38.6003 32.3641 38.7319C32.9203 40.4594 32.4948 41.9813 32.5097 42.3885ZM42.2153 37.3492C42.3535 37.3492 42.4132 37.3162 42.3759 37.3162C42.458 37.3162 42.5364 37.2869 42.6111 37.2722C42.4692 37.5509 42.3049 37.8516 42.1145 38.167C41.9241 38.4825 41.7712 38.7135 41.5696 39.007C41.5465 38.9632 41.5163 38.9236 41.48 38.8896C41.672 38.596 41.8381 38.2868 41.9764 37.9654C42.0511 37.8003 42.1369 37.595 42.2191 37.3603L42.2153 37.3492ZM36.922 39.7148C37.5932 38.2347 37.8285 36.5995 37.6015 34.9946C37.6015 34.8735 37.5716 34.7563 37.5529 34.6279C37.8545 34.7064 38.1635 34.7556 38.4749 34.7746C38.5096 34.7705 38.5448 34.7705 38.5795 34.7746C38.6937 35.1673 38.8728 35.539 39.1096 35.8748C39.6324 36.615 40.4275 37.1265 41.3269 37.3015C41.4389 37.3236 41.5435 37.3346 41.6405 37.3455C41.4987 38.0791 41.3456 38.5925 41.3083 38.8455C41.2763 38.8489 41.2449 38.8564 41.2149 38.8676C40.8005 38.9959 40.2183 39.6634 39.7217 40.1513C39.6208 40.2427 39.5317 40.3463 39.4567 40.4594C38.9437 41.2063 38.3367 41.8866 37.65 42.4838C36.8213 43.216 35.8944 43.8331 34.8951 44.3177C35.4691 43.7885 35.9811 43.1979 36.4219 42.5571C36.4949 42.4281 36.5539 42.2916 36.5972 42.1501C36.8847 41.0498 36.754 40.5583 36.5227 40.4117C36.6812 40.1975 36.8163 39.9677 36.9257 39.7258L36.922 39.7148ZM36.5935 35.4824C37.0303 37.8516 36.392 39.8249 36.3435 40.3493C36.3163 40.344 36.2884 40.344 36.2613 40.3493C35.888 40.4079 35.384 40.8884 34.9847 41.2296C34.9009 41.2902 34.8299 41.3661 34.7756 41.4533C34.3944 42.0096 33.9469 42.5193 33.4429 42.9716C33.3085 43.0927 33.1555 43.2211 32.9949 43.3384C33.0173 42.7956 32.8643 42.5278 32.6813 42.4215C32.8063 42.2756 32.9128 42.1155 32.9987 41.9446C33.5041 40.9005 33.666 39.7275 33.4616 38.5889C33.4264 38.3043 33.3715 38.0225 33.2973 37.7453C33.9709 37.3752 34.6216 36.9662 35.246 36.5203C35.72 36.2232 36.168 35.8639 36.5972 35.4934L36.5935 35.4824ZM34.2119 28.2206C33.8695 27.8819 33.5081 27.5623 33.1293 27.2633C32.0791 26.4397 30.9137 25.769 29.6689 25.2718C30.4677 23.0235 31.1621 21.4354 31.1621 21.4428L31.3115 21.0394C31.6324 21.1421 31.9796 21.2705 32.3567 21.4061C33.8033 21.9916 35.1581 22.7758 36.3808 23.7351C36.232 24.3239 36.2193 24.9379 36.3435 25.5322C36.3435 25.6202 36.3845 25.7045 36.4032 25.7852C35.4119 26.3323 34.6401 27.1952 34.2156 28.2315L34.2119 28.2206ZM37.1311 22.2166C36.9929 22.0993 36.8548 21.9893 36.7092 21.8792C35.2892 20.7895 33.7115 19.9142 32.0281 19.2826C32.0767 19.1799 32.1177 19.0772 32.1663 18.9782C32.6888 17.7716 33.3272 16.6639 33.2488 16.7446C33.4765 16.3008 33.6968 15.8974 33.8648 15.5636C36.7933 16.5351 39.3732 18.3184 41.2933 20.6983C40.9251 20.6247 40.5485 20.5988 40.1735 20.6213C39.5809 20.6634 39.0041 20.8272 38.4801 21.102C37.956 21.3768 37.4965 21.7565 37.1311 22.2166Z" fill="#333132"/>
</svg>