<?xml version="1.0" encoding="UTF-8" standalone="no"?>
<svg
   viewBox="0 0 4553 5933"
   shape-rendering="geometricPrecision"
   text-rendering="geometricPrecision"
   image-rendering="optimizeQuality"
   fill-rule="evenodd"
   clip-rule="evenodd"
   version="1.1"
   id="svg8"
   sodipodi:docname="techin.svg"
   inkscape:version="1.1.2 (0a00cf5339, 2022-02-04)"
   xmlns:inkscape="http://www.inkscape.org/namespaces/inkscape"
   xmlns:sodipodi="http://sodipodi.sourceforge.net/DTD/sodipodi-0.dtd"
   xmlns="http://www.w3.org/2000/svg"
   xmlns:svg="http://www.w3.org/2000/svg">
  <defs
     id="defs12" />
  <sodipodi:namedview
     id="namedview10"
     pagecolor="#ffffff"
     bordercolor="#666666"
     borderopacity="1.0"
     inkscape:pageshadow="2"
     inkscape:pageopacity="0.0"
     inkscape:pagecheckerboard="0"
     showgrid="false"
     inkscape:zoom="0.1398955"
     inkscape:cx="2273.1253"
     inkscape:cy="-1150.859"
     inkscape:window-width="1920"
     inkscape:window-height="1048"
     inkscape:window-x="1920"
     inkscape:window-y="0"
     inkscape:window-maximized="1"
     inkscape:current-layer="svg8" />
  <g
     fill="#fefefe"
     id="g6"
     transform="scale(1.0295631,1)">
    <path
       d="m 2900,967 469,3 3,973 1045,3 L 4418,3 0,0 4,1944 h 1041 l 6,-976 478,-2 3,1940 -348,-3 4,962 h 2048 l -4,-962 H 2807 V 968 Z M 3,5238 h 4410 -8 l 14,-2 V 5101 H 3 v 15 z m 0,-824 h 4550 l -148,1 15,-2 -1,-136 H 4 l -1,15 z m 1,549 4415,-1 V 4826 H 3 Z M 2,4688 H 4418 V 4555 H 4 Z m 2009,796 c 3,82 0,238 0,328 h -60 l -2,110 h 280 v -110 l -62,-1 v -106 h 207 v 106 l -61,2 v 109 h 278 l -1,-110 -59,-2 1,-326 60,-1 -1,-108 -278,1 v 107 l 61,1 v 109 l -206,-1 1,-108 60,-1 -1,-108 -278,1 v 107 z m 1331,328 -72,-2 v -185 c 12,6 166,194 190,221 14,16 54,60 61,76 h 136 v -438 h 61 c 0,-32 2,-79 -1,-109 h -253 v 109 l 60,1 v 180 l -128,-145 c -15,-16 -117,-141 -129,-144 -18,-5 -148,-1 -178,-1 l -1,14 v 95 h 48 c 4,74 1,244 1,328 h -48 l -1,110 h 255 z M 679,5484 h 60 v 328 h -60 v 110 h 544 v -217 c -34,0 -102,-4 -132,2 v 105 H 897 v -107 l 120,-1 v -110 l -120,-1 v -109 h 193 v 108 c 23,3 115,4 134,-2 l -1,-215 H 679 Z m 3269,6 85,2 -1,325 -59,3 v 108 c 47,3 228,1 289,1 v -111 h -60 c -4,-56 -1,-257 -1,-328 l 86,1 1,109 132,-1 v -217 c -183,-5 -416,-1 -605,-1 l 1,219 131,-1 1,-14 z m -3814,-6 h 84 v 328 h -59 c -1,24 -5,90 3,110 h 285 v -110 l -61,-1 1,-327 h 85 l 1,109 h 133 l -2,-218 -604,1 v 217 h 134 z m 1596,221 c -14,7 -6,18 -21,50 -25,53 -81,74 -134,59 -126,-36 -129,-209 -84,-277 40,-62 137,-73 188,-26 51,46 34,77 50,82 h 138 l -2,-218 -133,1 -1,33 c -14,-8 -18,-15 -37,-23 -95,-43 -233,-17 -303,51 -71,70 -101,229 -47,346 106,229 506,191 522,-78 z"
       id="path2"
       style="fill:#000000" />
    <path
       d="m 4,2492 c 41,1 1015,5 1044,-2 V 2355 H 4 Z m 0,1098 1044,-2 V 3453 H 4 Z M 3376,2217 h 1044 v -136 l -1044,2 z M 4,3315 1048,3314 V 3181 L 4,3179 Z m 0,825 1044,-2 v -133 c -39,-9 -207,-2 -260,-2 -249,0 -545,-7 -784,0 z M 3376,2492 h 1045 l -1,-137 H 3377 Z m 0,823 H 4421 V 3179 H 3376 Z m 0,825 H 4421 V 4003 H 3376 Z m 1,-550 H 4421 V 3453 H 3378 l -2,15 z m 1,-549 H 4421 V 2904 H 3377 Z M 3,2217 h 1044 l -1,-137 H 3 Z m 3375,550 h 1043 v -123 l -2,-14 -1043,1 z M 5,3041 h 1045 l -1,-136 -1045,1 z m 3372,824 h 1044 v -137 l -1045,2 z M 6,2764 h 1040 l 2,-132 H 1085 6 Z m -3,1098 1043,1 V 3730 L 4,3731 Z m 2915,1622 60,-2 -1,-107 -278,1 2,109 h 60 v 327 h -61 v 110 l 279,-1 -1,-109 -61,-1 z"
       id="path4"
       style="fill:#000000" />
  </g>
</svg>
