<?xml version="1.0" standalone="no"?>
<!DOCTYPE svg PUBLIC "-//W3C//DTD SVG 20010904//EN"
 "http://www.w3.org/TR/2001/REC-SVG-20010904/DTD/svg10.dtd">
<svg version="1.0" xmlns="http://www.w3.org/2000/svg"
 width="286.000000pt" height="286.000000pt" viewBox="0 0 286.000000 286.000000"
 preserveAspectRatio="xMidYMid meet">

<g transform="translate(0.000000,286.000000) scale(0.100000,-0.100000)"
fill="#000000" stroke="none">
<path d="M1278 2758 l-122 -103 137 -3 c75 -1 199 -1 274 0 l137 3 -122 103
c-95 79 -129 102 -152 102 -23 0 -57 -23 -152 -102z"/>
<path d="M600 2483 c-8 -3 -25 -15 -37 -26 l-23 -20 0 -517 0 -516 292 -227
292 -227 306 0 306 0 292 227 292 227 0 516 0 517 -26 24 -26 24 -826 2 c-455
1 -834 -1 -842 -4z m963 -208 c118 -25 211 -77 302 -169 155 -156 206 -331
155 -531 -26 -103 -66 -172 -124 -216 -54 -41 -104 -59 -164 -59 -53 0 -82 12
-126 50 l-36 32 -52 -26 c-37 -19 -68 -26 -108 -26 -131 0 -228 72 -282 211
-29 75 -29 203 0 279 59 149 205 231 348 194 44 -11 60 -12 63 -3 16 48 90 65
132 30 24 -19 24 -20 29 -293 l5 -273 31 -3 c77 -8 140 115 132 261 -7 144
-102 276 -247 346 -73 35 -80 36 -186 36 -90 -1 -120 -5 -165 -23 -111 -44
-209 -142 -252 -252 -32 -84 -36 -217 -9 -298 54 -160 182 -273 341 -302 36
-7 75 -14 88 -16 84 -16 82 -139 -3 -160 -44 -11 -190 22 -273 62 -60 29 -95
55 -157 118 -92 93 -136 167 -165 282 -112 437 280 843 723 749z"/>
<path d="M1350 1838 c-52 -35 -82 -100 -78 -169 7 -100 63 -173 134 -173 29 0
43 7 69 36 125 136 16 401 -125 306z"/>
<path d="M231 1877 c-74 -63 -133 -118 -132 -123 1 -5 61 -55 134 -111 l132
-103 3 110 c1 60 1 161 0 224 l-3 116 -134 -113z"/>
<path d="M2490 1765 c0 -180 3 -225 13 -218 77 59 245 189 255 198 10 9 -12
33 -110 115 -68 57 -131 110 -140 118 -17 14 -18 3 -18 -213z"/>
<path d="M10 865 l0 -736 98 75 c422 327 836 653 838 661 2 8 -810 647 -917
723 -18 13 -19 -7 -19 -723z"/>
<path d="M2378 1237 c-257 -199 -466 -366 -464 -372 1 -5 211 -173 467 -371
l464 -362 3 370 c1 203 1 533 0 733 l-3 364 -467 -362z"/>
<path d="M616 389 l-498 -389 1312 0 1312 0 -501 390 -502 390 -312 -1 -312
-1 -499 -389z"/>
</g>
</svg>
