<svg viewBox="0 0 1183 487" width="1183" height="487" xmlns="http://www.w3.org/2000/svg" class="logo site-header-desktop__logo logo--color"><g fill-rule="nonzero" fill="none"><path d="M801.62 4.59c8.81-2.96 18.11-4.37 27.4-4.52 17.67-.14 35.32 2.22 52.5 6.33 28.94 6.38 56.87 16.64 84.15 28.1 56.95 24.58 111.27 55.2 162.23 90.52 13.81 9.82 27.6 19.72 40.45 30.78 5.65 5.38 11.34 11.34 13.38 19.11 1.48 7.76-1.16 16.39-7.27 21.54-5.81 5.72-14.72 7.25-22.47 5.52-7.68-1.06-14.36-5.2-21.15-8.63-28.49-14.12-57.98-26.27-88.37-35.64-13.47-4.37-27.19-7.89-40.9-11.39-33.67-7.63-68.01-12.72-102.54-13.76-14.91-.96-29.89-.33-44.74 1.22 19.83 31.22 42.24 60.71 65.68 89.29 4.85 5.63 6.47 14.03 3.48 20.91-4.66 10-16.93 15.93-27.58 12.43-5.04-1.5-8.43-5.72-11.96-9.32-9.33-11.04-18.45-22.28-27-33.94-11.61-14.8-22.25-30.33-32.98-45.78-5.72-8.84-12.06-17.32-16.96-26.65-54.54 10.23-106.5 31.44-155.09 57.87-16.33 9.18-32.54 18.62-47.99 29.25-11.04 7.13-21.2 15.49-31.87 23.14-4.89 3.84-11.52 4.56-17.52 3.81-7.88-2.22-15.16-8.19-16.87-16.48-1.39-4.44-.62-9.24 1.14-13.46 2.12-4 5.43-7.22 8.87-10.11 28.76-23.86 60.32-44.23 93.34-61.67 66.06-34.29 138.4-58.32 213-62.96 16.96-.04 33.97-.68 50.89.76 34.46 2.23 68.62 8.18 102.03 16.81 27.59 7.48 54.44 17.43 80.97 28.01-36.28-21.09-73.42-40.87-112.15-57.13-26.46-11.34-53.68-21.02-81.62-28.01-18.7-4.44-37.86-7.69-57.14-6.92-3.35.16-6.62.92-9.84 1.75-3.36.81-5.82 3.37-8.6 5.21-3.83 4.87-3.3 11.65-1.64 17.25 1.56 4.53 3.63 8.89 6.05 13.03.74 1.1.79 2.44 1 3.72-14.54 1.08-28.88 4-43.08 7.16-5.11-10.34-9.95-21.15-10.85-32.79-.51-8.89-.74-18.1 2.43-26.56 4.41-13.33 16.07-23.44 29.19-27.8z" class="logo__logo"></path> <path d="M50.96 347.89c4.99-4.18 13.31-3.4 17.45 1.62 2.8 3.59 4.2 7.98 5.75 12.2 13.67 36.69 27.33 73.38 40.98 110.07 1.29 3.67 3.29 8.28.33 11.73-3.32 3.18-9.26 3.88-12.86.78-2.29-2.33-3.09-5.62-4.23-8.58-3.32-9.56-6.9-19.02-10.14-28.6-15.43-.24-30.85-.05-46.28-.11-4.31.07-8.65-.25-12.93.38-3.34 11.23-7.74 22.14-11.64 33.2-1.91 6.47-11.54 7.69-15.4 2.44-2.52-3.49-.66-7.92.59-11.53 14.38-38.34 28.66-76.71 43.02-115.05l5.36-8.55zm7.78 16.26l-23.76 67.63c15.4 0 30.79.01 46.19.01 1.6.51 1.23-1.06.88-1.83-7.73-21.95-15.8-43.79-23.31-65.81zm323.79-18.41c3.46-1.19 7.81-.46 10.05 2.65 1.9 2.04 1.7 4.99 1.81 7.58-.03 40.33.02 80.66-.03 121 .16 3.43-1.32 7.3-4.69 8.68-3.46 1.22-7.9.93-10.43-2.01-1.9-2.05-2.14-5-2.18-7.65.01-40.34-.01-80.68.01-121.01-.11-3.75 1.51-8.14 5.46-9.24zm220.86 2.77c3.44-3.5 8.97-3.95 13.47-2.52 4.45 1.53 7.43 5.7 8.69 10.08 6.23 21.89 12.53 43.76 18.73 65.66 3.61 12.02 6.88 24.14 9.85 36.34 4.21-18.8 10.12-37.15 15.3-55.69 4.24-14.98 8.59-29.93 12.85-44.9.96-3.32 2.16-6.83 4.9-9.12 4.96-4.67 13.97-4.15 18.15 1.32 2.49 3.43 3.42 7.69 3.98 11.83 6.12 37.18 12.43 74.32 18.58 111.49.31 3.56 1.28 7.83-1.32 10.8-2.42 3.02-6.94 2.84-10.26 1.71-3.41-1.39-4.14-5.46-4.82-8.65-5.6-36.33-11.75-72.58-16.95-108.96-1.86 10.12-5 19.94-7.75 29.85-8.07 27.36-15.85 54.82-23.98 82.17-1.57 6.86-11.01 8.45-15.81 4.06-1.42-1.54-1.98-3.62-2.61-5.55-5.31-18.17-10.55-36.36-15.88-54.52-5.07-18.64-11.48-36.93-15.36-55.87-5.08 35.76-11.25 71.36-16.7 107.06-.58 3.72-1.2 8.15-4.78 10.23-3.53 1.51-8.66 1.6-10.97-1.99-2.15-2.98-1.38-6.87-.95-10.24 6.37-38.1 12.7-76.2 19.06-114.29.72-3.7 1.8-7.59 4.58-10.3zm410.94-2.95c5.47-1.97 11.69 2.5 11.25 8.37.1 40.33-.01 80.67.06 121.01-.09 2.93.13 6.37-2.13 8.63-3.65 4.35-11.99 3.55-14.26-1.84-.89-1.77-.91-3.79-.95-5.71-.01-39.68.02-79.37-.01-119.06-.37-4.49.85-10.39 6.04-11.4zm-258.22 4.65c6.53-1.9 13.88 3.9 13.12 10.74.02 6.76-7.59 11.79-13.84 9.48-6.05-1.72-9.1-9.45-5.99-14.88 1.29-2.67 3.98-4.4 6.71-5.34zm41.48 6.48c.69-6.39 9.12-8.7 13.87-5.14 2.68 1.87 3.28 5.4 3.25 8.46-.01 7.12-.05 14.24.02 21.36 3.93-.01 8.04-.3 11.8 1.09 5.39 2.47 4.78 11.36-.72 13.37-3.65.95-7.47.47-11.19.68.11 27.15.13 54.3 0 81.45.26 5.99-6.17 9.89-11.59 8.05-3.79-1.17-5.86-5.21-5.64-9.01-.02-26.82-.05-53.64.03-80.46-3.73-.31-7.6.25-11.2-.95-4.81-2.55-5.04-10.89.07-13.25 3.57-1.19 7.4-.97 11.12-.99.09-8.21-.35-16.46.18-24.66zm54.44.31c.45-6.92 10.29-9.48 14.68-4.63 2.41 2.57 2.43 6.28 2.36 9.59-.05 6.48-.02 12.96.04 19.45 4.14-.02 8.52-.4 12.45 1.22 4.28 2.75 4.24 10.33-.37 12.72-3.81 1.67-8.07.95-12.09 1.09-.15 26.87.01 53.74-.08 80.61-.01 2.4-.6 4.92-2.12 6.82-3.9 3.75-11.5 3.32-14.08-1.77-1.37-3.19-.93-6.76-1-10.13-.01-25.17.08-50.34-.04-75.51-4.4-.24-9.5.89-13.08-2.38-2.69-2.91-1.97-7.33-.17-10.51 3.91-2.61 8.77-2.15 13.25-2.19.24-8.13-.25-16.28.25-24.38zm-718.75 31.16c-.14-7.98 11.8-10.75 15.73-4.24 2.44 4.51 1.06 9.95 1.53 14.87 3.17-6.2 7.99-11.57 13.87-15.3 4.2-2.56 9.54-4.16 14.33-2.38 5.15 2.16 5.84 9.88 1.86 13.44-2.57 2.63-6.32 3.28-9.64 4.48-6.21 2-12.28 5.4-15.96 10.96-3.39 5.3-4.41 11.74-4.44 17.94-.03 16.02 0 32.04-.01 48.07-.02 3.05-.37 6.61-3.08 8.55-5.13 4.37-14.52.62-14.21-6.48-.11-29.97-.15-59.94.02-89.91zm93.26-7.52c7.53-.66 15.31-.22 22.49 2.33 3.66 1.39 7.31 3.33 9.73 6.5 2.97 3.9.16 10.51-4.78 10.92-4.02.33-7.56-1.94-11.24-3.15-8.8-3.19-19.42-2.36-26.89 3.58-6.98 5.31-10.66 13.82-12.26 22.23-1.41 8.59-1.25 17.56 1.27 25.94 2.28 7.46 6.77 14.49 13.51 18.65 6.29 3.75 14 4.2 21.08 2.97 4.37-.75 8.15-3.3 12.42-4.36 3.29-.85 7.66.95 8.1 4.65.8 3.23-.84 6.6-3.49 8.44-7.62 5.42-17.24 7.31-26.46 6.94-12.4-.32-24.99-5.63-32.78-15.48-9.15-10.98-12.35-25.76-11.88-39.77.29-13.8 4.79-28.02 14.68-37.97 6.98-7.14 16.6-11.42 26.5-12.42zm299.84-.05c3.76-.97 8.36.43 9.99 4.19 1.68 4.44.64 9.31.93 13.92 5.08-8.87 13.56-18.29 24.73-18.35 5.27-.24 9.23 5.19 7.76 10.18-.96 4.73-5.92 6.52-9.95 7.88-7.03 2.06-14.31 5.49-18.23 11.98-3.51 5.5-4.25 12.19-4.29 18.57-.01 15.69-.01 31.37.01 47.05-.12 2.31-.07 4.88-1.48 6.85-2.92 4.41-10.06 4.61-13.62.92-1.95-2.07-2.18-5.06-2.24-7.74.03-28.68.01-57.37.02-86.06-.23-4.08 1.92-8.76 6.37-9.39zm230-.08c3.02-.38 6.69-.28 8.73 2.37 2.12 2.14 2.33 5.29 2.34 8.14-.06 28.66.01 57.32-.04 85.99.15 3.44-1.35 7.17-4.7 8.57-3.4 1.27-8.03 1.15-10.4-1.96-1.99-2.02-2.18-5.01-2.24-7.67v-79c.02-3.32-.2-6.66.27-9.95.45-3.15 2.94-5.82 6.04-6.49zm213.51 1.43c3.14-2.34 7.96-2.13 11.13.12 2.14 2.01 3.12 5.02 3 7.92-.06 29.01.01 58.02-.03 87.04 0 3.21-1.19 6.92-4.33 8.33-4.09 2.1-10.35.93-12.06-3.73-1.46-3.75-.74-7.85-.93-11.76-3.64 5.28-8.13 10.04-13.95 12.91-11.92 5.93-26.72 4.3-37.88-2.62-11.78-7.42-18.68-20.69-20.96-34.14-2.04-12.54-1.25-25.78 3.46-37.66 4.24-10.79 12.42-20.3 23.26-24.77 10.01-4.11 21.9-4.72 31.77.12 5.92 2.92 10.76 7.72 14.26 13.28.37-5.04-1.2-11.35 3.26-15.04zm-37.7 14.26c-6.65 1.67-12.45 6.19-15.9 12.08-5.22 8.56-6.41 18.91-6.02 28.75.62 9.59 3.25 19.66 10.15 26.7 7.15 7.68 19.32 9.62 28.76 5.31 5.21-2.33 9.29-6.68 12.13-11.56 5.27-9.82 6.36-21.41 5.02-32.33-1.17-8.17-3.9-16.6-10.04-22.41-6.09-6.25-15.69-8.87-24.1-6.54zm-648.11-4.17c8.98-8.45 21.64-12.65 33.89-11.53 10.64.62 20.77 5.84 27.81 13.78 9.15 10.22 13.68 24.18 13.23 37.81-.11 2.7-1.25 5.88-4 6.89-3.8 1.58-8.04.88-12.04 1.02-19.25.08-38.51-.18-57.76.15.48 7.54 2.58 15.26 7.62 21.08 5.17 6.22 13.21 9.84 21.26 9.93 7.35.15 15-.92 21.37-4.81 3.81-2.08 7.25-4.98 11.45-6.28 3.29-.65 7.47 1.31 8.04 4.87 1.42 4.84-2.59 9-6.22 11.57-11.97 8.54-27.47 11.05-41.86 9.21-11.8-1.47-22.85-8.21-29.41-18.14-8.4-12.37-10.76-28.05-9-42.69 1.45-12.26 6.69-24.21 15.62-32.86zm8.57 13.54c-4.94 5.98-6.9 13.8-7.38 21.4 18.85-.02 37.7.18 56.55-.1-.34-8.79-3.01-17.93-9.34-24.3-10.71-10.82-30.79-9.16-39.83 3zm152.82-23.85c11.43-2.76 24.08-1.62 34.3 4.45 10.41 6.06 17.4 16.83 20.62 28.26 3.71 13.64 3.4 28.41-1.22 41.8-3.61 9.67-9.91 18.66-18.9 23.98-10.78 6.52-24.34 7.8-36.35 4.29-11.66-3.3-21.4-12.1-26.45-23.05-7.04-14.97-7.65-32.59-3.09-48.37 4.28-14.72 15.84-27.76 31.09-31.36zm4.73 14.6c-6.54 1.78-12.09 6.4-15.42 12.26-5.29 9.18-6.43 20.15-5.62 30.55.81 8.69 3.39 17.68 9.51 24.17 7.53 8.2 20.82 10.41 30.54 4.91 6.09-3.13 10.37-8.94 12.9-15.18 3.76-10.24 4.28-21.56 2.11-32.2-1.69-7.96-5.51-15.81-12.18-20.72-6.19-4.57-14.48-5.78-21.84-3.79z" class="logo__text"></path></g></svg>