<svg xmlns="http://www.w3.org/2000/svg" viewBox="0 0 4553 5933" shape-rendering="geometricPrecision" text-rendering="geometricPrecision" image-rendering="optimizeQuality" fill-rule="evenodd" clip-rule="evenodd"><g fill="#fefefe"><path d="M2900 967l469 3 3 973 1045 3 1-1943L0 0l4 1944h1041l6-976 478-2 3 1940-348-3 4 962h2048l-4-962h-425V968zM3 5238h4410-8l14-2v-135H3v15zM3 4414h4550l-148 1 15-2-1-136H4l-1 15zM4 4963l4415-1v-136H3zM2 4688h4416v-133H4zM2011 5484c3 82 0 238 0 328h-60l-2 110h280v-110l-62-1v-106h207v106l-61 2v109h278l-1-110-59-2 1-326 60-1-1-108-278 1v107l61 1v109l-206-1 1-108 60-1-1-108-278 1v107l61 1zM3342 5812l-72-2v-185c12 6 166 194 190 221 14 16 54 60 61 76h136v-438h61c0-32 2-79-1-109h-253v109l60 1v180l-128-145c-15-16-117-141-129-144-18-5-148-1-178-1l-1 14v95h48c4 74 1 244 1 328h-48l-1 110h255l-1-110zM679 5484h60v328h-60v110h544v-217c-34 0-102-4-132 2v105H897v-107l120-1v-110l-120-1v-109h193v108c23 3 115 4 134-2l-1-215H679v109zM3948 5490l85 2-1 325-59 3v108c47 3 228 1 289 1v-111h-60c-4-56-1-257-1-328l86 1 1 109 132-1v-217c-183-5-416-1-605-1l1 219 131-1 1-14v-95zM134 5484h84v328h-59c-1 24-5 90 3 110h285v-110l-61-1 1-327h85l1 109h133l-2-218-604 1v217h134v-109zM1730 5705c-14 7-6 18-21 50-25 53-81 74-134 59-126-36-129-209-84-277 40-62 137-73 188-26 51 46 34 77 50 82h138l-2-218-133 1-1 33c-14-8-18-15-37-23-95-43-233-17-303 51-71 70-101 229-47 346 106 229 506 191 522-78h-136z"></path><path d="M4 2492c41 1 1015 5 1044-2v-135H4v137zM4 3590l1044-2v-135H4zM3376 2217h1044v-136l-1044 2zM4 3315l1044-1v-133L4 3179zM4 4140l1044-2v-133c-39-9-207-2-260-2-249 0-545-7-784 0v137zM3376 2492h1045l-1-137H3377zM3376 3315h1045v-136H3376zM3376 4140h1045v-137H3376zM3377 3590h1044v-137H3378l-2 15zM3378 3041h1043v-137H3377zM3 2217h1044l-1-137H3zM3378 2767h1043v-123l-2-14-1043 1zM5 3041h1045l-1-136-1045 1zM3377 3865h1044v-137l-1045 2zM6 2764h1040l2-132h37H6zM3 3862l1043 1v-133L4 3731zM2918 5484l60-2-1-107-278 1 2 109h60v327h-61v110l279-1-1-109-61-1z"></path></g></svg>